<svg width="224" height="140" viewBox="0 0 224 140" fill="none" xmlns="http://www.w3.org/2000/svg">
<path d="M197.333 6H26.6668C14.8848 6 5.3335 15.5513 5.3335 27.3333V112.667C5.3335 124.449 14.8848 134 26.6668 134H197.333C209.116 134 218.667 124.449 218.667 112.667V27.3333C218.667 15.5513 209.116 6 197.333 6Z" stroke="#4A4545" stroke-width="9.984" stroke-linecap="round" stroke-linejoin="round"/>
<path d="M112 91.3332C123.782 91.3332 133.334 81.7819 133.334 69.9998C133.334 58.2178 123.782 48.6665 112 48.6665C100.218 48.6665 90.667 58.2178 90.667 69.9998C90.667 81.7819 100.218 91.3332 112 91.3332Z" stroke="#4A4545" stroke-width="9.984" stroke-linecap="round" stroke-linejoin="round"/>
<path d="M48 70H48.1067M176 70H176.107" stroke="#4A4545" stroke-width="9.984" stroke-linecap="round" stroke-linejoin="round"/>
</svg>
