<svg width="54" height="54" viewBox="0 0 54 54" fill="none" xmlns="http://www.w3.org/2000/svg">
<circle cx="27" cy="27" r="26" fill="white" stroke="#6401FF" stroke-width="2"/>
<path d="M23.2406 30.2041L22.8932 34.9505C23.3902 34.9505 23.6054 34.7431 23.8636 34.4941L26.1939 32.3308L31.0224 35.7657C31.908 36.2451 32.5319 35.9926 32.7708 34.9743L35.9402 20.5481C36.2211 19.2765 35.4677 18.7784 34.6049 19.0904L15.975 26.0187C14.7035 26.4981 14.7228 27.1866 15.7588 27.4986L20.5218 28.9376L31.5851 22.2133C32.1057 21.8784 32.5791 22.0637 32.1897 22.3986L23.2406 30.2041Z" fill="#BE00FE"/>
<path d="M23.2406 30.2041L22.8932 34.9505C23.3902 34.9505 23.6054 34.7431 23.8636 34.4941L26.1939 32.3308L31.0224 35.7657C31.908 36.2451 32.5319 35.9926 32.7708 34.9743L35.9402 20.5481C36.2211 19.2765 35.4677 18.7784 34.6049 19.0904L15.975 26.0187C14.7035 26.4981 14.7228 27.1866 15.7588 27.4986L20.5218 28.9376L31.5851 22.2133C32.1057 21.8784 32.5791 22.0637 32.1897 22.3986L23.2406 30.2041Z" fill="url(#paint0_linear_538_5773)"/>
<defs>
<linearGradient id="paint0_linear_538_5773" x1="15" y1="19" x2="32.0579" y2="39.3107" gradientUnits="userSpaceOnUse">
<stop stop-color="#BE00FE"/>
<stop offset="1" stop-color="#5200FF"/>
</linearGradient>
</defs>
</svg>
