<svg width="70" height="70" viewBox="0 0 70 70" fill="none" xmlns="http://www.w3.org/2000/svg">
<g id="Frame 2072751597">
<g id="Group">
<g id="Group_2">
<g id="Group_3">
<g id="Vector">
<path d="M22.9796 26.589C23.4509 27.6496 24.7078 28.3958 26.2004 28.3958C27.693 28.3958 29.6177 27.1782 29.6177 25.6463C29.6177 22.1506 22.7832 24.1538 22.7832 20.7365C22.7832 17.3193 24.3151 17.987 26.2004 17.987C28.0858 17.987 28.7535 18.6155 29.3034 19.5582" stroke="#0F0F0F" stroke-width="2" stroke-miterlimit="10"/>
<path d="M22.9796 26.589C23.4509 27.6496 24.7078 28.3958 26.2004 28.3958C27.693 28.3958 29.6177 27.1782 29.6177 25.6463C29.6177 22.1506 22.7832 24.1538 22.7832 20.7365C22.7832 17.3193 24.3151 17.987 26.2004 17.987C28.0858 17.987 28.7535 18.6155 29.3034 19.5582" stroke="url(#paint0_linear_119_5785)" stroke-width="2" stroke-miterlimit="10"/>
</g>
<g id="Vector_2">
<path d="M26.2012 18.0308V14.6921" stroke="#0F0F0F" stroke-width="2" stroke-miterlimit="10"/>
<path d="M26.2012 18.0308V14.6921" stroke="url(#paint1_linear_119_5785)" stroke-width="2" stroke-miterlimit="10"/>
</g>
<g id="Vector_3">
<path d="M26.2012 31.7417V28.4031" stroke="#0F0F0F" stroke-width="2" stroke-miterlimit="10"/>
<path d="M26.2012 31.7417V28.4031" stroke="url(#paint2_linear_119_5785)" stroke-width="2" stroke-miterlimit="10"/>
</g>
</g>
<g id="Vector_4">
<path d="M37.6843 27.9669C40.3075 21.6337 37.3001 14.3731 30.9669 11.7498C24.6338 9.12652 17.3731 12.134 14.7499 18.4671C12.1266 24.8003 15.134 32.0609 21.4672 34.6842C27.8003 37.3075 35.061 34.3 37.6843 27.9669Z" stroke="#0F0F0F" stroke-width="2" stroke-miterlimit="10"/>
<path d="M37.6843 27.9669C40.3075 21.6337 37.3001 14.3731 30.9669 11.7498C24.6338 9.12652 17.3731 12.134 14.7499 18.4671C12.1266 24.8003 15.134 32.0609 21.4672 34.6842C27.8003 37.3075 35.061 34.3 37.6843 27.9669Z" stroke="url(#paint3_linear_119_5785)" stroke-width="2" stroke-miterlimit="10"/>
</g>
</g>
<g id="Group_4">
<g id="Vector_5">
<path d="M44.3053 56.6768L40.8881 54.6343H27.6513C27.1407 54.6343 26.63 54.5165 26.198 54.2415L13.5896 47.0928C12.5291 46.4644 11.8613 45.3253 11.8613 44.1077C11.8613 41.476 14.7287 39.787 17.0068 41.0832L22.82 44.2255" stroke="#0F0F0F" stroke-width="2" stroke-miterlimit="10"/>
<path d="M44.3053 56.6768L40.8881 54.6343H27.6513C27.1407 54.6343 26.63 54.5165 26.198 54.2415L13.5896 47.0928C12.5291 46.4644 11.8613 45.3253 11.8613 44.1077C11.8613 41.476 14.7287 39.787 17.0068 41.0832L22.82 44.2255" stroke="url(#paint4_linear_119_5785)" stroke-width="2" stroke-miterlimit="10"/>
</g>
<g id="Vector_6">
<path d="M55.9711 45.2078L45.9551 60.1729L51.1398 63.5508L60.9987 48.625L55.9711 45.2078Z" stroke="#0F0F0F" stroke-width="2" stroke-miterlimit="10"/>
<path d="M55.9711 45.2078L45.9551 60.1729L51.1398 63.5508L60.9987 48.625L55.9711 45.2078Z" stroke="url(#paint5_linear_119_5785)" stroke-width="2" stroke-miterlimit="10"/>
</g>
<g id="Vector_7">
<path d="M36.6853 47.0912H28.9867C27.1799 47.0912 25.7266 45.6379 25.7266 43.831C25.7266 42.0242 27.1799 40.5709 28.9867 40.5709H36.4889C40.6131 38.1357 47.7618 38.8427 51.1004 43.831L52.3181 44.6952" stroke="#0F0F0F" stroke-width="2" stroke-miterlimit="10"/>
<path d="M36.6853 47.0912H28.9867C27.1799 47.0912 25.7266 45.6379 25.7266 43.831C25.7266 42.0242 27.1799 40.5709 28.9867 40.5709H36.4889C40.6131 38.1357 47.7618 38.8427 51.1004 43.831L52.3181 44.6952" stroke="url(#paint6_linear_119_5785)" stroke-width="2" stroke-miterlimit="10"/>
</g>
</g>
</g>
</g>
<defs>
<linearGradient id="paint0_linear_119_5785" x1="22.7832" y1="17.9343" x2="32.3943" y2="23.9865" gradientUnits="userSpaceOnUse">
<stop stop-color="#BE00FE"/>
<stop offset="1" stop-color="#5200FF"/>
</linearGradient>
<linearGradient id="paint1_linear_119_5785" x1="26.2012" y1="14.6921" x2="28.014" y2="15.2155" gradientUnits="userSpaceOnUse">
<stop stop-color="#BE00FE"/>
<stop offset="1" stop-color="#5200FF"/>
</linearGradient>
<linearGradient id="paint2_linear_119_5785" x1="26.2012" y1="28.4031" x2="28.014" y2="28.9264" gradientUnits="userSpaceOnUse">
<stop stop-color="#BE00FE"/>
<stop offset="1" stop-color="#5200FF"/>
</linearGradient>
<linearGradient id="paint3_linear_119_5785" x1="10" y1="29.9343" x2="42.1762" y2="15.9081" gradientUnits="userSpaceOnUse">
<stop stop-color="#BE00FE"/>
<stop offset="1" stop-color="#5200FF"/>
</linearGradient>
<linearGradient id="paint4_linear_119_5785" x1="11.8613" y1="40.6375" x2="25.1315" y2="66.5108" gradientUnits="userSpaceOnUse">
<stop stop-color="#BE00FE"/>
<stop offset="1" stop-color="#5200FF"/>
</linearGradient>
<linearGradient id="paint5_linear_119_5785" x1="45.9551" y1="45.2078" x2="64.137" y2="59.5809" gradientUnits="userSpaceOnUse">
<stop stop-color="#BE00FE"/>
<stop offset="1" stop-color="#5200FF"/>
</linearGradient>
<linearGradient id="paint6_linear_119_5785" x1="25.7266" y1="39.2156" x2="30.2316" y2="53.8775" gradientUnits="userSpaceOnUse">
<stop stop-color="#BE00FE"/>
<stop offset="1" stop-color="#5200FF"/>
</linearGradient>
</defs>
</svg>
