<svg width="70" height="70" viewBox="0 0 70 70" fill="none" xmlns="http://www.w3.org/2000/svg">
<g id="Frame 2072751599">
<g id="Group">
<g id="Group_2">
<path id="Vector" d="M50.9278 30.8266H54.9005C56.8668 30.8266 58.4318 32.4318 58.4318 34.3579V41.2199C58.4318 43.1862 56.8267 44.7512 54.9005 44.7512H50.6469V25.931C50.6469 17.1428 43.504 10 34.7159 10C25.9278 10 18.7849 17.1428 18.7849 25.931V44.7512H14.5313C12.565 44.7512 11 43.1461 11 41.2199V34.3579C11 32.3916 12.6052 30.8266 14.5313 30.8266H18.2633" stroke="white" stroke-width="2" stroke-miterlimit="10"/>
<path id="Vector_2" d="M28.7773 56.6706H27.3327C22.5574 56.6706 18.7051 52.8183 18.7051 48.043" stroke="white" stroke-width="2" stroke-miterlimit="10"/>
<path id="Vector_3" d="M28.6172 56.6705C28.6172 58.5164 30.1019 60.0012 31.9478 60.0012C33.7937 60.0012 35.2785 58.5164 35.2785 56.6705C35.2785 54.8246 33.7937 53.3398 31.9478 53.3398C30.1019 53.3398 28.6172 54.8246 28.6172 56.6705Z" stroke="white" stroke-width="2" stroke-miterlimit="10"/>
</g>
<path id="Vector_4" d="M34.6758 14.8945C40.6148 14.8945 45.4302 19.71 45.4302 25.649" stroke="white" stroke-width="2" stroke-miterlimit="10"/>
</g>
</g>
</svg>
