<svg width="70" height="70" viewBox="0 0 70 70" fill="none" xmlns="http://www.w3.org/2000/svg">
<g id="Frame 2072751591">
<g id="Group">
<g id="Vector">
<path d="M33.1293 10H15.9348C12.6571 10 10 12.6571 10 15.9347V31.9098C10 35.1875 12.6571 37.8445 15.9348 37.8445H33.1293C36.4069 37.8445 39.064 35.1875 39.064 31.9098V15.9347C39.064 12.6571 36.4069 10 33.1293 10Z" stroke="#0F0F0F" stroke-width="2" stroke-miterlimit="10"/>
<path d="M33.1293 10H15.9348C12.6571 10 10 12.6571 10 15.9347V31.9098C10 35.1875 12.6571 37.8445 15.9348 37.8445H33.1293C36.4069 37.8445 39.064 35.1875 39.064 31.9098V15.9347C39.064 12.6571 36.4069 10 33.1293 10Z" stroke="url(#paint0_linear_119_5821)" stroke-width="2" stroke-miterlimit="10"/>
</g>
<g id="Vector_2">
<path d="M43.1286 32.1953H54.0632C57.3558 32.1953 59.9979 34.8782 59.9979 38.1301V54.0645C59.9979 57.357 57.3151 59.9992 54.0632 59.9992H36.9093C33.6168 59.9992 30.9746 57.3164 30.9746 54.0645V41.7885" stroke="#0F0F0F" stroke-width="2" stroke-miterlimit="10"/>
<path d="M43.1286 32.1953H54.0632C57.3558 32.1953 59.9979 34.8782 59.9979 38.1301V54.0645C59.9979 57.357 57.3151 59.9992 54.0632 59.9992H36.9093C33.6168 59.9992 30.9746 57.3164 30.9746 54.0645V41.7885" stroke="url(#paint1_linear_119_5821)" stroke-width="2" stroke-miterlimit="10"/>
</g>
<g id="Group_2">
<g id="Vector_3">
<path d="M46.7852 23.6962V16.8672H53.5735" stroke="#0F0F0F" stroke-width="2" stroke-miterlimit="10"/>
<path d="M46.7852 23.6962V16.8672H53.5735" stroke="url(#paint2_linear_119_5821)" stroke-width="2" stroke-miterlimit="10"/>
</g>
<g id="Vector_4">
<path d="M46.7852 16.8672L54.3052 24.4279" stroke="#0F0F0F" stroke-width="2" stroke-miterlimit="10"/>
<path d="M46.7852 16.8672L54.3052 24.4279" stroke="url(#paint3_linear_119_5821)" stroke-width="2" stroke-miterlimit="10"/>
</g>
</g>
<g id="Group_3">
<g id="Vector_5">
<path d="M16.1777 53.536H23.0068V46.707" stroke="#0F0F0F" stroke-width="2" stroke-miterlimit="10"/>
<path d="M16.1777 53.536H23.0068V46.707" stroke="url(#paint4_linear_119_5821)" stroke-width="2" stroke-miterlimit="10"/>
</g>
<g id="Vector_6">
<path d="M23.006 53.5373L15.4453 45.9766" stroke="#0F0F0F" stroke-width="2" stroke-miterlimit="10"/>
<path d="M23.006 53.5373L15.4453 45.9766" stroke="url(#paint5_linear_119_5821)" stroke-width="2" stroke-miterlimit="10"/>
</g>
</g>
<g id="Group_4">
<g id="Vector_7">
<path d="M20.8107 27.8498C21.3391 29.0693 22.8431 29.9635 24.5504 29.9635C26.2576 29.9635 28.534 28.5408 28.534 26.7929C28.534 22.7687 20.6074 25.0857 20.6074 21.1021C20.6074 17.1185 22.396 17.9315 24.591 17.9315C26.7861 17.9315 27.5584 18.6631 28.1681 19.7607" stroke="#0F0F0F" stroke-width="2" stroke-miterlimit="10"/>
<path d="M20.8107 27.8498C21.3391 29.0693 22.8431 29.9635 24.5504 29.9635C26.2576 29.9635 28.534 28.5408 28.534 26.7929C28.534 22.7687 20.6074 25.0857 20.6074 21.1021C20.6074 17.1185 22.396 17.9315 24.591 17.9315C26.7861 17.9315 27.5584 18.6631 28.1681 19.7607" stroke="url(#paint6_linear_119_5821)" stroke-width="2" stroke-miterlimit="10"/>
</g>
<g id="Vector_8">
<path d="M24.5508 17.93V14.7188" stroke="#0F0F0F" stroke-width="2" stroke-miterlimit="10"/>
<path d="M24.5508 17.93V14.7188" stroke="url(#paint7_linear_119_5821)" stroke-width="2" stroke-miterlimit="10"/>
</g>
<g id="Vector_9">
<path d="M24.5508 33.1292V29.918" stroke="#0F0F0F" stroke-width="2" stroke-miterlimit="10"/>
<path d="M24.5508 33.1292V29.918" stroke="url(#paint8_linear_119_5821)" stroke-width="2" stroke-miterlimit="10"/>
</g>
</g>
<g id="Group_5">
<g id="Vector_10">
<path d="M50.6482 52.149C49.5913 52.9213 48.3312 53.3685 46.9898 53.3685C43.372 53.3685 40.4453 50.1979 40.4453 46.2956C40.4453 42.3933 43.372 39.2227 46.9898 39.2227C50.6075 39.2227 49.5507 39.6291 50.5669 40.3608" stroke="#0F0F0F" stroke-width="2" stroke-miterlimit="10"/>
<path d="M50.6482 52.149C49.5913 52.9213 48.3312 53.3685 46.9898 53.3685C43.372 53.3685 40.4453 50.1979 40.4453 46.2956C40.4453 42.3933 43.372 39.2227 46.9898 39.2227C50.6075 39.2227 49.5507 39.6291 50.5669 40.3608" stroke="url(#paint9_linear_119_5821)" stroke-width="2" stroke-miterlimit="10"/>
</g>
<g id="Vector_11">
<path d="M37.3574 43.8945H47.8042" stroke="#0F0F0F" stroke-width="2" stroke-miterlimit="10"/>
<path d="M37.3574 43.8945H47.8042" stroke="url(#paint10_linear_119_5821)" stroke-width="2" stroke-miterlimit="10"/>
</g>
<g id="Vector_12">
<path d="M37.3574 48.6523H47.8042" stroke="#0F0F0F" stroke-width="2" stroke-miterlimit="10"/>
<path d="M37.3574 48.6523H47.8042" stroke="url(#paint11_linear_119_5821)" stroke-width="2" stroke-miterlimit="10"/>
</g>
</g>
</g>
</g>
<defs>
<linearGradient id="paint0_linear_119_5821" x1="10" y1="10" x2="38.3655" y2="38.5388" gradientUnits="userSpaceOnUse">
<stop stop-color="#BE00FE"/>
<stop offset="1" stop-color="#5200FF"/>
</linearGradient>
<linearGradient id="paint1_linear_119_5821" x1="30.9746" y1="32.1953" x2="59.2987" y2="60.6941" gradientUnits="userSpaceOnUse">
<stop stop-color="#BE00FE"/>
<stop offset="1" stop-color="#5200FF"/>
</linearGradient>
<linearGradient id="paint2_linear_119_5821" x1="46.7852" y1="16.8672" x2="53.7357" y2="23.5269" gradientUnits="userSpaceOnUse">
<stop stop-color="#BE00FE"/>
<stop offset="1" stop-color="#5200FF"/>
</linearGradient>
<linearGradient id="paint3_linear_119_5821" x1="46.7852" y1="16.8672" x2="54.4806" y2="24.2449" gradientUnits="userSpaceOnUse">
<stop stop-color="#BE00FE"/>
<stop offset="1" stop-color="#5200FF"/>
</linearGradient>
<linearGradient id="paint4_linear_119_5821" x1="16.1777" y1="46.707" x2="23.13" y2="53.4082" gradientUnits="userSpaceOnUse">
<stop stop-color="#BE00FE"/>
<stop offset="1" stop-color="#5200FF"/>
</linearGradient>
<linearGradient id="paint5_linear_119_5821" x1="15.4453" y1="45.9766" x2="23.1424" y2="53.3957" gradientUnits="userSpaceOnUse">
<stop stop-color="#BE00FE"/>
<stop offset="1" stop-color="#5200FF"/>
</linearGradient>
<linearGradient id="paint6_linear_119_5821" x1="20.6074" y1="17.8632" x2="31.7371" y2="24.8906" gradientUnits="userSpaceOnUse">
<stop stop-color="#BE00FE"/>
<stop offset="1" stop-color="#5200FF"/>
</linearGradient>
<linearGradient id="paint7_linear_119_5821" x1="24.5508" y1="14.7187" x2="26.3524" y2="15.2595" gradientUnits="userSpaceOnUse">
<stop stop-color="#BE00FE"/>
<stop offset="1" stop-color="#5200FF"/>
</linearGradient>
<linearGradient id="paint8_linear_119_5821" x1="24.5508" y1="29.918" x2="26.3524" y2="30.4587" gradientUnits="userSpaceOnUse">
<stop stop-color="#BE00FE"/>
<stop offset="1" stop-color="#5200FF"/>
</linearGradient>
<linearGradient id="paint9_linear_119_5821" x1="40.4453" y1="39.2227" x2="53.9536" y2="48.6139" gradientUnits="userSpaceOnUse">
<stop stop-color="#BE00FE"/>
<stop offset="1" stop-color="#5200FF"/>
</linearGradient>
<linearGradient id="paint10_linear_119_5821" x1="37.3574" y1="43.8945" x2="37.5578" y2="45.9121" gradientUnits="userSpaceOnUse">
<stop stop-color="#BE00FE"/>
<stop offset="1" stop-color="#5200FF"/>
</linearGradient>
<linearGradient id="paint11_linear_119_5821" x1="37.3574" y1="48.6523" x2="37.5578" y2="50.6699" gradientUnits="userSpaceOnUse">
<stop stop-color="#BE00FE"/>
<stop offset="1" stop-color="#5200FF"/>
</linearGradient>
</defs>
</svg>
