<svg width="70" height="70" viewBox="0 0 70 70" fill="none" xmlns="http://www.w3.org/2000/svg">
<g id="Frame 2072751593">
<g id="Group">
<g id="Group_2">
<g id="Group_3">
<g id="Vector">
<path d="M26.8305 36.2651C27.4634 37.6997 29.1934 38.7545 31.2187 38.7545C33.244 38.7545 35.8601 37.0668 35.8601 35.0415C35.8601 30.3157 26.5352 33.0161 26.5352 28.3748C26.5352 23.7334 28.6027 24.6617 31.1765 24.6617C33.7503 24.6617 34.6364 25.5478 35.3959 26.8136" stroke="#0F0F0F" stroke-width="2" stroke-miterlimit="10"/>
<path d="M26.8305 36.2651C27.4634 37.6997 29.1934 38.7545 31.2187 38.7545C33.244 38.7545 35.8601 37.0668 35.8601 35.0415C35.8601 30.3157 26.5352 33.0161 26.5352 28.3748C26.5352 23.7334 28.6027 24.6617 31.1765 24.6617C33.7503 24.6617 34.6364 25.5478 35.3959 26.8136" stroke="url(#paint0_linear_119_5772)" stroke-width="2" stroke-miterlimit="10"/>
</g>
<g id="Vector_2">
<path d="M31.2185 24.5772V20.4844" stroke="#0F0F0F" stroke-width="2" stroke-miterlimit="10"/>
<path d="M31.2185 24.5772V20.4844" stroke="url(#paint1_linear_119_5772)" stroke-width="2" stroke-miterlimit="10"/>
</g>
<g id="Vector_3">
<path d="M31.2188 42.8069V38.6719" stroke="#0F0F0F" stroke-width="2" stroke-miterlimit="10"/>
<path d="M31.2188 42.8069V38.6719" stroke="url(#paint2_linear_119_5772)" stroke-width="2" stroke-miterlimit="10"/>
</g>
</g>
<g id="Vector_4">
<path d="M55.3966 15H7V47.9958H55.3966V15Z" stroke="#0F0F0F" stroke-width="2" stroke-miterlimit="10"/>
<path d="M55.3966 15H7V47.9958H55.3966V15Z" stroke="url(#paint3_linear_119_5772)" stroke-width="2" stroke-miterlimit="10"/>
</g>
<g id="Vector_5">
<path d="M15.0585 22.2548C15.0585 22.7189 14.6787 23.0565 14.2568 23.0565C13.8348 23.0565 13.4551 22.6768 13.4551 22.2548C13.4551 21.8329 13.8348 21.4531 14.2568 21.4531C14.6787 21.4531 15.0585 21.8329 15.0585 22.2548Z" stroke="#0F0F0F" stroke-width="2" stroke-miterlimit="10"/>
<path d="M15.0585 22.2548C15.0585 22.7189 14.6787 23.0565 14.2568 23.0565C13.8348 23.0565 13.4551 22.6768 13.4551 22.2548C13.4551 21.8329 13.8348 21.4531 14.2568 21.4531C14.6787 21.4531 15.0585 21.8329 15.0585 22.2548Z" stroke="url(#paint4_linear_119_5772)" stroke-width="2" stroke-miterlimit="10"/>
</g>
<g id="Vector_6">
<path d="M47.3379 22.2548C47.3379 22.7189 47.7176 23.0565 48.1396 23.0565C48.5615 23.0565 48.9413 22.6768 48.9413 22.2548C48.9413 21.8329 48.5615 21.4531 48.1396 21.4531C47.7176 21.4531 47.3379 21.8329 47.3379 22.2548Z" stroke="#0F0F0F" stroke-width="2" stroke-miterlimit="10"/>
<path d="M47.3379 22.2548C47.3379 22.7189 47.7176 23.0565 48.1396 23.0565C48.5615 23.0565 48.9413 22.6768 48.9413 22.2548C48.9413 21.8329 48.5615 21.4531 48.1396 21.4531C47.7176 21.4531 47.3379 21.8329 47.3379 22.2548Z" stroke="url(#paint5_linear_119_5772)" stroke-width="2" stroke-miterlimit="10"/>
</g>
<g id="Vector_7">
<path d="M15.0585 40.7861C15.0585 40.3219 14.6787 39.9844 14.2568 39.9844C13.8348 39.9844 13.4551 40.3641 13.4551 40.7861C13.4551 41.208 13.8348 41.5878 14.2568 41.5878C14.6787 41.5878 15.0585 41.208 15.0585 40.7861Z" stroke="#0F0F0F" stroke-width="2" stroke-miterlimit="10"/>
<path d="M15.0585 40.7861C15.0585 40.3219 14.6787 39.9844 14.2568 39.9844C13.8348 39.9844 13.4551 40.3641 13.4551 40.7861C13.4551 41.208 13.8348 41.5878 14.2568 41.5878C14.6787 41.5878 15.0585 41.208 15.0585 40.7861Z" stroke="url(#paint6_linear_119_5772)" stroke-width="2" stroke-miterlimit="10"/>
</g>
<g id="Vector_8">
<path d="M47.3379 40.7861C47.3379 40.3219 47.7176 39.9844 48.1396 39.9844C48.5615 39.9844 48.9413 40.3641 48.9413 40.7861C48.9413 41.208 48.5615 41.5878 48.1396 41.5878C47.7176 41.5878 47.3379 41.208 47.3379 40.7861Z" stroke="#0F0F0F" stroke-width="2" stroke-miterlimit="10"/>
<path d="M47.3379 40.7861C47.3379 40.3219 47.7176 39.9844 48.1396 39.9844C48.5615 39.9844 48.9413 40.3641 48.9413 40.7861C48.9413 41.208 48.5615 41.5878 48.1396 41.5878C47.7176 41.5878 47.3379 41.208 47.3379 40.7861Z" stroke="url(#paint7_linear_119_5772)" stroke-width="2" stroke-miterlimit="10"/>
</g>
</g>
<g id="Vector_9">
<path d="M62.3595 22V54.9958H13.9629" stroke="#0F0F0F" stroke-width="2" stroke-miterlimit="10"/>
<path d="M62.3595 22V54.9958H13.9629" stroke="url(#paint8_linear_119_5772)" stroke-width="2" stroke-miterlimit="10"/>
</g>
</g>
</g>
<defs>
<linearGradient id="paint0_linear_119_5772" x1="26.5352" y1="24.5859" x2="39.5933" y2="32.8697" gradientUnits="userSpaceOnUse">
<stop stop-color="#BE00FE"/>
<stop offset="1" stop-color="#5200FF"/>
</linearGradient>
<linearGradient id="paint1_linear_119_5772" x1="31.2185" y1="20.4844" x2="33.0792" y2="20.9226" gradientUnits="userSpaceOnUse">
<stop stop-color="#BE00FE"/>
<stop offset="1" stop-color="#5200FF"/>
</linearGradient>
<linearGradient id="paint2_linear_119_5772" x1="31.2188" y1="38.6719" x2="33.0814" y2="39.1061" gradientUnits="userSpaceOnUse">
<stop stop-color="#BE00FE"/>
<stop offset="1" stop-color="#5200FF"/>
</linearGradient>
<linearGradient id="paint3_linear_119_5772" x1="7" y1="15" x2="38.6945" y2="59.8095" gradientUnits="userSpaceOnUse">
<stop stop-color="#BE00FE"/>
<stop offset="1" stop-color="#5200FF"/>
</linearGradient>
<linearGradient id="paint4_linear_119_5772" x1="13.4551" y1="21.4531" x2="15.0874" y2="23.0265" gradientUnits="userSpaceOnUse">
<stop stop-color="#BE00FE"/>
<stop offset="1" stop-color="#5200FF"/>
</linearGradient>
<linearGradient id="paint5_linear_119_5772" x1="47.3379" y1="21.4531" x2="48.9702" y2="23.0265" gradientUnits="userSpaceOnUse">
<stop stop-color="#BE00FE"/>
<stop offset="1" stop-color="#5200FF"/>
</linearGradient>
<linearGradient id="paint6_linear_119_5772" x1="13.4551" y1="39.9844" x2="15.0874" y2="41.5578" gradientUnits="userSpaceOnUse">
<stop stop-color="#BE00FE"/>
<stop offset="1" stop-color="#5200FF"/>
</linearGradient>
<linearGradient id="paint7_linear_119_5772" x1="47.3379" y1="39.9844" x2="48.9702" y2="41.5577" gradientUnits="userSpaceOnUse">
<stop stop-color="#BE00FE"/>
<stop offset="1" stop-color="#5200FF"/>
</linearGradient>
<linearGradient id="paint8_linear_119_5772" x1="13.9629" y1="22" x2="45.6574" y2="66.8095" gradientUnits="userSpaceOnUse">
<stop stop-color="#BE00FE"/>
<stop offset="1" stop-color="#5200FF"/>
</linearGradient>
</defs>
</svg>
