<svg width="70" height="70" viewBox="0 0 70 70" fill="none" xmlns="http://www.w3.org/2000/svg">
<g id="Frame 2072751595">
<g id="Group">
<g id="Group_2">
<g id="Group_3">
<g id="Vector">
<path d="M22.0383 43.851C22.6653 45.2392 24.3222 46.2692 26.2926 46.2692C28.263 46.2692 30.8156 44.6571 30.8156 42.6419C30.8156 38.0293 21.7696 40.6715 21.7696 36.1485C21.7696 31.6255 23.7848 32.5212 26.2926 32.5212C28.8004 32.5212 29.6512 33.372 30.3677 34.5811" stroke="#0F0F0F" stroke-width="2" stroke-miterlimit="10"/>
<path d="M22.0383 43.851C22.6653 45.2392 24.3222 46.2692 26.2926 46.2692C28.263 46.2692 30.8156 44.6571 30.8156 42.6419C30.8156 38.0293 21.7696 40.6715 21.7696 36.1485C21.7696 31.6255 23.7848 32.5212 26.2926 32.5212C28.8004 32.5212 29.6512 33.372 30.3677 34.5811" stroke="url(#paint0_linear_119_5839)" stroke-width="2" stroke-miterlimit="10"/>
</g>
<g id="Vector_2">
<path d="M26.293 32.5662V28.1328" stroke="#0F0F0F" stroke-width="2" stroke-miterlimit="10"/>
<path d="M26.293 32.5662V28.1328" stroke="url(#paint1_linear_119_5839)" stroke-width="2" stroke-miterlimit="10"/>
</g>
<g id="Vector_3">
<path d="M26.293 50.6131V46.1797" stroke="#0F0F0F" stroke-width="2" stroke-miterlimit="10"/>
<path d="M26.293 50.6131V46.1797" stroke="url(#paint2_linear_119_5839)" stroke-width="2" stroke-miterlimit="10"/>
</g>
</g>
<g id="Vector_4">
<path d="M41.7106 44.0492C44.3698 35.2414 39.3855 25.9457 30.5777 23.2864C21.77 20.6272 12.4742 25.6116 9.81495 34.4193C7.15573 43.2271 12.1401 52.5229 20.9478 55.1821C29.7556 57.8413 39.0514 52.8569 41.7106 44.0492Z" stroke="#0F0F0F" stroke-width="2" stroke-miterlimit="10"/>
<path d="M41.7106 44.0492C44.3698 35.2414 39.3855 25.9457 30.5777 23.2864C21.77 20.6272 12.4742 25.6116 9.81495 34.4193C7.15573 43.2271 12.1401 52.5229 20.9478 55.1821C29.7556 57.8413 39.0514 52.8569 41.7106 44.0492Z" stroke="url(#paint3_linear_119_5839)" stroke-width="2" stroke-miterlimit="10"/>
</g>
</g>
<g id="Vector_5">
<path d="M39.6367 56.125H64.8489" stroke="#0F0F0F" stroke-width="2" stroke-miterlimit="10"/>
<path d="M39.6367 56.125H64.8489" stroke="url(#paint4_linear_119_5839)" stroke-width="2" stroke-miterlimit="10"/>
</g>
<g id="Vector_6">
<path d="M36.459 19.3164H64.8507" stroke="#0F0F0F" stroke-width="2" stroke-miterlimit="10"/>
<path d="M36.459 19.3164H64.8507" stroke="url(#paint5_linear_119_5839)" stroke-width="2" stroke-miterlimit="10"/>
</g>
<g id="Vector_7">
<path d="M45.1914 28.6289H64.8506" stroke="#0F0F0F" stroke-width="2" stroke-miterlimit="10"/>
<path d="M45.1914 28.6289H64.8506" stroke="url(#paint6_linear_119_5839)" stroke-width="2" stroke-miterlimit="10"/>
</g>
<g id="Vector_8">
<path d="M36.459 10H64.8507" stroke="#0F0F0F" stroke-width="2" stroke-miterlimit="10"/>
<path d="M36.459 10H64.8507" stroke="url(#paint7_linear_119_5839)" stroke-width="2" stroke-miterlimit="10"/>
</g>
<g id="Vector_9">
<path d="M47.6543 37.9453H64.8505" stroke="#0F0F0F" stroke-width="2" stroke-miterlimit="10"/>
<path d="M47.6543 37.9453H64.8505" stroke="url(#paint8_linear_119_5839)" stroke-width="2" stroke-miterlimit="10"/>
</g>
<g id="Vector_10">
<path d="M46.4004 47.2578H64.8505" stroke="#0F0F0F" stroke-width="2" stroke-miterlimit="10"/>
<path d="M46.4004 47.2578H64.8505" stroke="url(#paint9_linear_119_5839)" stroke-width="2" stroke-miterlimit="10"/>
</g>
</g>
</g>
<defs>
<linearGradient id="paint0_linear_119_5839" x1="21.7696" y1="32.4491" x2="34.4767" y2="40.4663" gradientUnits="userSpaceOnUse">
<stop stop-color="#BE00FE"/>
<stop offset="1" stop-color="#5200FF"/>
</linearGradient>
<linearGradient id="paint1_linear_119_5839" x1="26.293" y1="28.1328" x2="28.1682" y2="28.5405" gradientUnits="userSpaceOnUse">
<stop stop-color="#BE00FE"/>
<stop offset="1" stop-color="#5200FF"/>
</linearGradient>
<linearGradient id="paint2_linear_119_5839" x1="26.293" y1="46.1797" x2="28.1682" y2="46.5874" gradientUnits="userSpaceOnUse">
<stop stop-color="#BE00FE"/>
<stop offset="1" stop-color="#5200FF"/>
</linearGradient>
<linearGradient id="paint3_linear_119_5839" x1="5" y1="50.3672" x2="46.1023" y2="27.3457" gradientUnits="userSpaceOnUse">
<stop stop-color="#BE00FE"/>
<stop offset="1" stop-color="#5200FF"/>
</linearGradient>
<linearGradient id="paint4_linear_119_5839" x1="39.6367" y1="56.125" x2="39.7204" y2="58.159" gradientUnits="userSpaceOnUse">
<stop stop-color="#BE00FE"/>
<stop offset="1" stop-color="#5200FF"/>
</linearGradient>
<linearGradient id="paint5_linear_119_5839" x1="36.459" y1="19.3164" x2="36.5333" y2="21.3511" gradientUnits="userSpaceOnUse">
<stop stop-color="#BE00FE"/>
<stop offset="1" stop-color="#5200FF"/>
</linearGradient>
<linearGradient id="paint6_linear_119_5839" x1="45.1914" y1="28.6289" x2="45.2986" y2="30.6607" gradientUnits="userSpaceOnUse">
<stop stop-color="#BE00FE"/>
<stop offset="1" stop-color="#5200FF"/>
</linearGradient>
<linearGradient id="paint7_linear_119_5839" x1="36.459" y1="10" x2="36.5333" y2="12.0347" gradientUnits="userSpaceOnUse">
<stop stop-color="#BE00FE"/>
<stop offset="1" stop-color="#5200FF"/>
</linearGradient>
<linearGradient id="paint8_linear_119_5839" x1="47.6543" y1="37.9453" x2="47.7768" y2="39.9754" gradientUnits="userSpaceOnUse">
<stop stop-color="#BE00FE"/>
<stop offset="1" stop-color="#5200FF"/>
</linearGradient>
<linearGradient id="paint9_linear_119_5839" x1="46.4004" y1="47.2578" x2="46.5146" y2="49.2888" gradientUnits="userSpaceOnUse">
<stop stop-color="#BE00FE"/>
<stop offset="1" stop-color="#5200FF"/>
</linearGradient>
</defs>
</svg>
