<svg width="70" height="70" viewBox="0 0 70 70" fill="none" xmlns="http://www.w3.org/2000/svg">
<g id="Frame 2072751596" clip-path="url(#clip0_119_5872)">
<g id="Group">
<g id="Vector">
<path d="M48.2577 45.5232C49.7018 46.7484 49.8768 48.8926 48.6516 50.2929C47.4263 51.7369 45.2822 51.9119 43.8819 50.6867L39.156 46.7484" stroke="#0F0F0F" stroke-width="2" stroke-miterlimit="10"/>
<path d="M48.2577 45.5232C49.7018 46.7484 49.8768 48.8926 48.6516 50.2929C47.4263 51.7369 45.2822 51.9119 43.8819 50.6867L39.156 46.7484" stroke="url(#paint0_linear_119_5872)" stroke-width="2" stroke-miterlimit="10"/>
</g>
<g id="Vector_2">
<path d="M42.4389 49.511C43.8829 50.7362 44.0579 52.8804 42.8327 54.2806C41.6075 55.7247 39.4633 55.8997 38.063 54.6745L36.5315 53.3617" stroke="#0F0F0F" stroke-width="2" stroke-miterlimit="10"/>
<path d="M42.4389 49.511C43.8829 50.7362 44.0579 52.8804 42.8327 54.2806C41.6075 55.7247 39.4633 55.8997 38.063 54.6745L36.5315 53.3617" stroke="url(#paint1_linear_119_5872)" stroke-width="2" stroke-miterlimit="10"/>
</g>
<g id="Vector_3">
<path d="M36.4873 53.3553C37.9314 54.5806 38.1064 56.7247 36.8811 58.125C35.6559 59.569 33.5118 59.7441 32.1115 58.5188L30.58 57.2061" stroke="#0F0F0F" stroke-width="2" stroke-miterlimit="10"/>
<path d="M36.4873 53.3553C37.9314 54.5806 38.1064 56.7247 36.8811 58.125C35.6559 59.569 33.5118 59.7441 32.1115 58.5188L30.58 57.2061" stroke="url(#paint2_linear_119_5872)" stroke-width="2" stroke-miterlimit="10"/>
</g>
<g id="Vector_4">
<path d="M43.5776 41.6269L49.0036 46.134C50.4476 47.3593 52.5918 47.1842 53.7733 45.7402C54.9985 44.2962 54.8235 42.152 53.3794 40.9705L35.7886 26.224C35.6573 26.0927 35.4385 26.1802 35.3948 26.3552C33.9507 30.9061 31.7628 34.1442 27.6495 34.4068C26.3805 34.4943 25.4178 33.3566 25.7679 32.1314L28.6997 21.1042L37.2764 16.8159C38.9829 15.9845 40.9521 15.8532 42.7462 16.4221C45.8092 17.4285 48.5223 18.0411 50.9727 18.2599" stroke="#0F0F0F" stroke-width="2" stroke-miterlimit="10"/>
<path d="M43.5776 41.6269L49.0036 46.134C50.4476 47.3593 52.5918 47.1842 53.7733 45.7402C54.9985 44.2962 54.8235 42.152 53.3794 40.9705L35.7886 26.224C35.6573 26.0927 35.4385 26.1802 35.3948 26.3552C33.9507 30.9061 31.7628 34.1442 27.6495 34.4068C26.3805 34.4943 25.4178 33.3566 25.7679 32.1314L28.6997 21.1042L37.2764 16.8159C38.9829 15.9845 40.9521 15.8532 42.7462 16.4221C45.8092 17.4285 48.5223 18.0411 50.9727 18.2599" stroke="url(#paint3_linear_119_5872)" stroke-width="2" stroke-miterlimit="10"/>
</g>
<g id="Vector_5">
<path d="M19.9477 18.0013L25.1987 20.1018" stroke="#0F0F0F" stroke-width="2" stroke-miterlimit="10"/>
<path d="M19.9477 18.0013L25.1987 20.1018" stroke="url(#paint4_linear_119_5872)" stroke-width="2" stroke-miterlimit="10"/>
</g>
<g id="Vector_6">
<path d="M13.9088 40.6268L10.2332 35.6821" stroke="#0F0F0F" stroke-width="2" stroke-miterlimit="10"/>
<path d="M13.9088 40.6268L10.2332 35.6821" stroke="url(#paint5_linear_119_5872)" stroke-width="2" stroke-miterlimit="10"/>
</g>
<g id="Vector_7">
<path d="M59.3744 35.2893L51.8917 39.7089" stroke="#0F0F0F" stroke-width="2" stroke-miterlimit="10"/>
<path d="M59.3744 35.2893L51.8917 39.7089" stroke="url(#paint6_linear_119_5872)" stroke-width="2" stroke-miterlimit="10"/>
</g>
<g id="Vector_8">
<path d="M69 33.8466L62.5675 37.0409C61.5611 37.566 60.2921 37.1285 59.8107 36.122L50.4027 17.0871C49.8776 16.0807 50.3152 14.8117 51.3216 14.3303L57.7541 11.136L69 33.8903V33.8466Z" stroke="#0F0F0F" stroke-width="2" stroke-miterlimit="10"/>
<path d="M69 33.8466L62.5675 37.0409C61.5611 37.566 60.2921 37.1285 59.8107 36.122L50.4027 17.0871C49.8776 16.0807 50.3152 14.8117 51.3216 14.3303L57.7541 11.136L69 33.8903V33.8466Z" stroke="url(#paint7_linear_119_5872)" stroke-width="2" stroke-miterlimit="10"/>
</g>
<g id="Vector_9">
<path d="M1 33.2293L7.30122 36.6862C8.30766 37.255 9.57664 36.8612 10.1017 35.8548L20.385 17.2575C20.9538 16.251 20.56 14.982 19.5536 14.4569L13.2523 11L1 33.2293Z" stroke="#0F0F0F" stroke-width="2" stroke-miterlimit="10"/>
<path d="M1 33.2293L7.30122 36.6862C8.30766 37.255 9.57664 36.8612 10.1017 35.8548L20.385 17.2575C20.9538 16.251 20.56 14.982 19.5536 14.4569L13.2523 11L1 33.2293Z" stroke="url(#paint8_linear_119_5872)" stroke-width="2" stroke-miterlimit="10"/>
</g>
<g id="Group_2">
<g id="Vector_10">
<path d="M27.1238 52.1262L25.1547 54.4455C24.1482 55.6707 24.2795 57.5085 25.5047 58.515C26.73 59.5214 28.5678 59.3901 29.5743 58.1649L31.5434 55.8457C32.5498 54.6205 32.4186 52.7826 31.1933 51.7762C29.9681 50.7697 28.1302 50.901 27.1238 52.1262Z" stroke="#0F0F0F" stroke-width="2" stroke-miterlimit="10"/>
<path d="M27.1238 52.1262L25.1547 54.4455C24.1482 55.6707 24.2795 57.5085 25.5047 58.515C26.73 59.5214 28.5678 59.3901 29.5743 58.1649L31.5434 55.8457C32.5498 54.6205 32.4186 52.7826 31.1933 51.7762C29.9681 50.7697 28.1302 50.901 27.1238 52.1262Z" stroke="url(#paint9_linear_119_5872)" stroke-width="2" stroke-miterlimit="10"/>
</g>
<g id="Vector_11">
<path d="M23.0976 47.7986L20.2095 51.2993C19.2031 52.5245 19.3344 54.3624 20.5596 55.3688C21.7848 56.3753 23.6227 56.244 24.6291 55.0187L27.5172 51.5181C28.5236 50.2928 28.3923 48.455 27.1671 47.4486C25.9419 46.4421 24.104 46.5734 23.0976 47.7986Z" stroke="#0F0F0F" stroke-width="2" stroke-miterlimit="10"/>
<path d="M23.0976 47.7986L20.2095 51.2993C19.2031 52.5245 19.3344 54.3624 20.5596 55.3688C21.7848 56.3753 23.6227 56.244 24.6291 55.0187L27.5172 51.5181C28.5236 50.2928 28.3923 48.455 27.1671 47.4486C25.9419 46.4421 24.104 46.5734 23.0976 47.7986Z" stroke="url(#paint10_linear_119_5872)" stroke-width="2" stroke-miterlimit="10"/>
</g>
<g id="Vector_12">
<path d="M19.3347 43.2896L15.9215 47.3591C14.9151 48.5843 15.0463 50.4222 16.2716 51.4286C17.4968 52.4351 19.3347 52.3038 20.3411 51.0786L23.7542 47.009C24.7607 45.7838 24.6294 43.946 23.4042 42.9395C22.1789 41.9331 20.3411 42.0644 19.3347 43.2896Z" stroke="#0F0F0F" stroke-width="2" stroke-miterlimit="10"/>
<path d="M19.3347 43.2896L15.9215 47.3591C14.9151 48.5843 15.0463 50.4222 16.2716 51.4286C17.4968 52.4351 19.3347 52.3038 20.3411 51.0786L23.7542 47.009C24.7607 45.7838 24.6294 43.946 23.4042 42.9395C22.1789 41.9331 20.3411 42.0644 19.3347 43.2896Z" stroke="url(#paint11_linear_119_5872)" stroke-width="2" stroke-miterlimit="10"/>
</g>
<g id="Vector_13">
<path d="M13.9079 40.7973L12.0262 43.0727C11.0198 44.2979 11.1511 46.1358 12.3763 47.1422C13.6015 48.1487 15.4394 48.0174 16.4458 46.7922L18.3275 44.5167C19.3339 43.2915 19.2026 41.4537 17.9774 40.4472C16.7521 39.4408 14.9143 39.572 13.9079 40.7973Z" stroke="#0F0F0F" stroke-width="2" stroke-miterlimit="10"/>
<path d="M13.9079 40.7973L12.0262 43.0727C11.0198 44.2979 11.1511 46.1358 12.3763 47.1422C13.6015 48.1487 15.4394 48.0174 16.4458 46.7922L18.3275 44.5167C19.3339 43.2915 19.2026 41.4537 17.9774 40.4472C16.7521 39.4408 14.9143 39.572 13.9079 40.7973Z" stroke="url(#paint12_linear_119_5872)" stroke-width="2" stroke-miterlimit="10"/>
</g>
</g>
</g>
</g>
<defs>
<linearGradient id="paint0_linear_119_5872" x1="39.156" y1="45.5232" x2="44.537" y2="54.4679" gradientUnits="userSpaceOnUse">
<stop stop-color="#BE00FE"/>
<stop offset="1" stop-color="#5200FF"/>
</linearGradient>
<linearGradient id="paint1_linear_119_5872" x1="36.5315" y1="49.511" x2="42.5653" y2="56.4337" gradientUnits="userSpaceOnUse">
<stop stop-color="#BE00FE"/>
<stop offset="1" stop-color="#5200FF"/>
</linearGradient>
<linearGradient id="paint2_linear_119_5872" x1="30.58" y1="53.3553" x2="36.6138" y2="60.278" gradientUnits="userSpaceOnUse">
<stop stop-color="#BE00FE"/>
<stop offset="1" stop-color="#5200FF"/>
</linearGradient>
<linearGradient id="paint3_linear_119_5872" x1="25.6953" y1="16.0754" x2="56.9812" y2="44.2971" gradientUnits="userSpaceOnUse">
<stop stop-color="#BE00FE"/>
<stop offset="1" stop-color="#5200FF"/>
</linearGradient>
<linearGradient id="paint4_linear_119_5872" x1="19.9477" y1="18.0013" x2="21.4627" y2="21.6521" gradientUnits="userSpaceOnUse">
<stop stop-color="#BE00FE"/>
<stop offset="1" stop-color="#5200FF"/>
</linearGradient>
<linearGradient id="paint5_linear_119_5872" x1="10.2332" y1="35.6821" x2="15.003" y2="39.0998" gradientUnits="userSpaceOnUse">
<stop stop-color="#BE00FE"/>
<stop offset="1" stop-color="#5200FF"/>
</linearGradient>
<linearGradient id="paint6_linear_119_5872" x1="51.8917" y1="35.2893" x2="55.9033" y2="41.8359" gradientUnits="userSpaceOnUse">
<stop stop-color="#BE00FE"/>
<stop offset="1" stop-color="#5200FF"/>
</linearGradient>
<linearGradient id="paint7_linear_119_5872" x1="50.1791" y1="11.136" x2="75.1187" y2="28.4518" gradientUnits="userSpaceOnUse">
<stop stop-color="#BE00FE"/>
<stop offset="1" stop-color="#5200FF"/>
</linearGradient>
<linearGradient id="paint8_linear_119_5872" x1="1" y1="11" x2="26.1751" y2="29.3734" gradientUnits="userSpaceOnUse">
<stop stop-color="#BE00FE"/>
<stop offset="1" stop-color="#5200FF"/>
</linearGradient>
<linearGradient id="paint9_linear_119_5872" x1="24.4831" y1="51.1046" x2="32.6894" y2="58.672" gradientUnits="userSpaceOnUse">
<stop stop-color="#BE00FE"/>
<stop offset="1" stop-color="#5200FF"/>
</linearGradient>
<linearGradient id="paint10_linear_119_5872" x1="19.538" y1="46.777" x2="28.9229" y2="55.2248" gradientUnits="userSpaceOnUse">
<stop stop-color="#BE00FE"/>
<stop offset="1" stop-color="#5200FF"/>
</linearGradient>
<linearGradient id="paint11_linear_119_5872" x1="15.2499" y1="42.2679" x2="25.2105" y2="51.2279" gradientUnits="userSpaceOnUse">
<stop stop-color="#BE00FE"/>
<stop offset="1" stop-color="#5200FF"/>
</linearGradient>
<linearGradient id="paint12_linear_119_5872" x1="11.3547" y1="39.7756" x2="19.5125" y2="47.2537" gradientUnits="userSpaceOnUse">
<stop stop-color="#BE00FE"/>
<stop offset="1" stop-color="#5200FF"/>
</linearGradient>
<clipPath id="clip0_119_5872">
<rect width="70" height="70" fill="white"/>
</clipPath>
</defs>
</svg>
