<svg width="70" height="70" viewBox="0 0 70 70" fill="none" xmlns="http://www.w3.org/2000/svg">
<g id="Frame 2072751594">
<g id="Group">
<g id="Vector">
<path d="M35.4942 48.3009C42.8282 48.3009 48.7736 42.3555 48.7736 35.0215C48.7736 27.6875 42.8282 21.7422 35.4942 21.7422C28.1602 21.7422 22.2148 27.6875 22.2148 35.0215C22.2148 42.3555 28.1602 48.3009 35.4942 48.3009Z" stroke="#0F0F0F" stroke-width="2" stroke-miterlimit="10"/>
<path d="M35.4942 48.3009C42.8282 48.3009 48.7736 42.3555 48.7736 35.0215C48.7736 27.6875 42.8282 21.7422 35.4942 21.7422C28.1602 21.7422 22.2148 27.6875 22.2148 35.0215C22.2148 42.3555 28.1602 48.3009 35.4942 48.3009Z" stroke="url(#paint0_linear_119_5806)" stroke-width="2" stroke-miterlimit="10"/>
</g>
<g id="Group_2">
<g id="Vector_2">
<path d="M31.8899 38.7453C32.4162 39.9194 33.8333 40.7696 35.4932 40.7696C37.1531 40.7696 39.3394 39.3931 39.3394 37.6927C39.3394 33.806 31.6875 36.0328 31.6875 32.1866C31.6875 28.3405 33.3879 29.1097 35.5337 29.1097C37.6794 29.1097 38.4082 29.8384 39.0155 30.8911" stroke="#0F0F0F" stroke-width="2" stroke-miterlimit="10"/>
<path d="M31.8899 38.7453C32.4162 39.9194 33.8333 40.7696 35.4932 40.7696C37.1531 40.7696 39.3394 39.3931 39.3394 37.6927C39.3394 33.806 31.6875 36.0328 31.6875 32.1866C31.6875 28.3405 33.3879 29.1097 35.5337 29.1097C37.6794 29.1097 38.4082 29.8384 39.0155 30.8911" stroke="url(#paint1_linear_119_5806)" stroke-width="2" stroke-miterlimit="10"/>
</g>
<g id="Vector_3">
<path d="M35.5332 29.1498V25.668" stroke="#0F0F0F" stroke-width="2" stroke-miterlimit="10"/>
<path d="M35.5332 29.1498V25.668" stroke="url(#paint2_linear_119_5806)" stroke-width="2" stroke-miterlimit="10"/>
</g>
<g id="Vector_4">
<path d="M35.5332 44.2513V40.7695" stroke="#0F0F0F" stroke-width="2" stroke-miterlimit="10"/>
<path d="M35.5332 44.2513V40.7695" stroke="url(#paint3_linear_119_5806)" stroke-width="2" stroke-miterlimit="10"/>
</g>
</g>
<g id="Vector_5">
<path d="M55.8583 35.0202C55.8583 33.5223 55.6963 32.0648 55.3724 30.6478L59.9473 27.4494L54.3198 17.6923L49.2591 20.0405C47.0729 18.0567 44.4817 16.5182 41.6072 15.5871L41.1214 10H29.8663L29.3805 15.5466C26.506 16.4373 23.8745 17.9757 21.6882 19.9595L16.6275 17.5709L11 27.3279L15.5749 30.5263C15.251 31.9433 15.089 33.4413 15.089 34.9797C15.089 36.5182 15.251 37.9352 15.5749 39.3522L11 42.5506L16.6275 52.3077L21.6882 49.9595C23.8745 51.9433 26.4656 53.4818 29.3401 54.4129L29.8259 60H41.081L41.5668 54.4534C44.4413 53.5627 47.0728 52.0243 49.2186 50.0405L54.2793 52.4291L59.9069 42.672L55.332 39.4737C55.6559 38.0567 55.8178 36.5587 55.8178 35.0202H55.8583Z" stroke="#0F0F0F" stroke-width="2" stroke-miterlimit="10"/>
<path d="M55.8583 35.0202C55.8583 33.5223 55.6963 32.0648 55.3724 30.6478L59.9473 27.4494L54.3198 17.6923L49.2591 20.0405C47.0729 18.0567 44.4817 16.5182 41.6072 15.5871L41.1214 10H29.8663L29.3805 15.5466C26.506 16.4373 23.8745 17.9757 21.6882 19.9595L16.6275 17.5709L11 27.3279L15.5749 30.5263C15.251 31.9433 15.089 33.4413 15.089 34.9797C15.089 36.5182 15.251 37.9352 15.5749 39.3522L11 42.5506L16.6275 52.3077L21.6882 49.9595C23.8745 51.9433 26.4656 53.4818 29.3401 54.4129L29.8259 60H41.081L41.5668 54.4534C44.4413 53.5627 47.0728 52.0243 49.2186 50.0405L54.2793 52.4291L59.9069 42.672L55.332 39.4737C55.6559 38.0567 55.8178 36.5587 55.8178 35.0202H55.8583Z" stroke="url(#paint4_linear_119_5806)" stroke-width="2" stroke-miterlimit="10"/>
</g>
</g>
</g>
<defs>
<linearGradient id="paint0_linear_119_5806" x1="22.2148" y1="21.7422" x2="49.2527" y2="47.8038" gradientUnits="userSpaceOnUse">
<stop stop-color="#BE00FE"/>
<stop offset="1" stop-color="#5200FF"/>
</linearGradient>
<linearGradient id="paint1_linear_119_5806" x1="31.6875" y1="29.0469" x2="42.4533" y2="35.8204" gradientUnits="userSpaceOnUse">
<stop stop-color="#BE00FE"/>
<stop offset="1" stop-color="#5200FF"/>
</linearGradient>
<linearGradient id="paint2_linear_119_5806" x1="35.5332" y1="25.668" x2="37.3573" y2="26.1729" gradientUnits="userSpaceOnUse">
<stop stop-color="#BE00FE"/>
<stop offset="1" stop-color="#5200FF"/>
</linearGradient>
<linearGradient id="paint3_linear_119_5806" x1="35.5332" y1="40.7695" x2="37.3573" y2="41.2745" gradientUnits="userSpaceOnUse">
<stop stop-color="#BE00FE"/>
<stop offset="1" stop-color="#5200FF"/>
</linearGradient>
<linearGradient id="paint4_linear_119_5806" x1="11" y1="10" x2="61.8508" y2="57.9828" gradientUnits="userSpaceOnUse">
<stop stop-color="#BE00FE"/>
<stop offset="1" stop-color="#5200FF"/>
</linearGradient>
</defs>
</svg>
