<svg width="70" height="70" viewBox="0 0 70 70" fill="none" xmlns="http://www.w3.org/2000/svg">
<g id="Frame 2072751589">
<g id="Group">
<g id="Vector">
<path d="M39.1688 53.673C48.0672 51.5695 53.5756 42.6508 51.4721 33.7524C49.3686 24.854 40.4498 19.3456 31.5514 21.4491C22.653 23.5526 17.1447 32.4714 19.2482 41.3698C21.3517 50.2682 30.2704 55.7765 39.1688 53.673Z" stroke="#0F0F0F" stroke-width="2" stroke-miterlimit="10"/>
<path d="M39.1688 53.673C48.0672 51.5695 53.5756 42.6508 51.4721 33.7524C49.3686 24.854 40.4498 19.3456 31.5514 21.4491C22.653 23.5526 17.1447 32.4714 19.2482 41.3698C21.3517 50.2682 30.2704 55.7765 39.1688 53.673Z" stroke="url(#paint0_linear_119_5761)" stroke-width="2" stroke-miterlimit="10"/>
</g>
<g id="Group_2">
<g id="Vector_2">
<path d="M31.0912 41.9969C31.7136 43.3662 33.3734 44.3621 35.2821 44.3621C37.1908 44.3621 39.722 42.7853 39.722 40.7936C39.722 36.2708 30.8008 38.8434 30.8008 34.4036C30.8008 29.9637 32.834 30.1734 35.2821 30.1734C37.7302 30.1734 38.5601 31.665 39.2655 32.8683" stroke="#0F0F0F" stroke-width="2" stroke-miterlimit="10"/>
<path d="M31.0912 41.9969C31.7136 43.3662 33.3734 44.3621 35.2821 44.3621C37.1908 44.3621 39.722 42.7853 39.722 40.7936C39.722 36.2708 30.8008 38.8434 30.8008 34.4036C30.8008 29.9637 32.834 30.1734 35.2821 30.1734C37.7302 30.1734 38.5601 31.665 39.2655 32.8683" stroke="url(#paint1_linear_119_5761)" stroke-width="2" stroke-miterlimit="10"/>
</g>
<g id="Vector_3">
<path d="M35.2812 30.8315V26.6406" stroke="#0F0F0F" stroke-width="2" stroke-miterlimit="10"/>
<path d="M35.2812 30.8315V26.6406" stroke="url(#paint2_linear_119_5761)" stroke-width="2" stroke-miterlimit="10"/>
</g>
<g id="Vector_4">
<path d="M35.2812 48.5112V44.3203" stroke="#0F0F0F" stroke-width="2" stroke-miterlimit="10"/>
<path d="M35.2812 48.5112V44.3203" stroke="url(#paint3_linear_119_5761)" stroke-width="2" stroke-miterlimit="10"/>
</g>
</g>
<g id="Vector_5">
<path d="M35.2821 59.9979C47.5882 59.9979 57.5643 50.0219 57.5643 37.7158C57.5643 25.4097 47.5882 15.4336 35.2821 15.4336C22.976 15.4336 13 25.4097 13 37.7158C13 50.0219 22.976 59.9979 35.2821 59.9979Z" stroke="#0F0F0F" stroke-width="2" stroke-miterlimit="10"/>
<path d="M35.2821 59.9979C47.5882 59.9979 57.5643 50.0219 57.5643 37.7158C57.5643 25.4097 47.5882 15.4336 35.2821 15.4336C22.976 15.4336 13 25.4097 13 37.7158C13 50.0219 22.976 59.9979 35.2821 59.9979Z" stroke="url(#paint4_linear_119_5761)" stroke-width="2" stroke-miterlimit="10"/>
</g>
<g id="Vector_6">
<path d="M41.3393 10H29.1816" stroke="#0F0F0F" stroke-width="2" stroke-miterlimit="10"/>
<path d="M41.3393 10H29.1816" stroke="url(#paint5_linear_119_5761)" stroke-width="2" stroke-miterlimit="10"/>
</g>
<g id="Vector_7">
<path d="M51.5469 15.6406L57.0655 21.2008" stroke="#0F0F0F" stroke-width="2" stroke-miterlimit="10"/>
<path d="M51.5469 15.6406L57.0655 21.2008" stroke="url(#paint6_linear_119_5761)" stroke-width="2" stroke-miterlimit="10"/>
</g>
<g id="Vector_8">
<path d="M19.0167 15.6406L13.498 21.2008" stroke="#0F0F0F" stroke-width="2" stroke-miterlimit="10"/>
<path d="M19.0167 15.6406L13.498 21.2008" stroke="url(#paint7_linear_119_5761)" stroke-width="2" stroke-miterlimit="10"/>
</g>
</g>
</g>
<defs>
<linearGradient id="paint0_linear_119_5761" x1="15.4395" y1="25.2578" x2="55.7196" y2="49.1238" gradientUnits="userSpaceOnUse">
<stop stop-color="#BE00FE"/>
<stop offset="1" stop-color="#5200FF"/>
</linearGradient>
<linearGradient id="paint1_linear_119_5761" x1="30.8008" y1="30.7656" x2="43.3152" y2="38.6805" gradientUnits="userSpaceOnUse">
<stop stop-color="#BE00FE"/>
<stop offset="1" stop-color="#5200FF"/>
</linearGradient>
<linearGradient id="paint2_linear_119_5761" x1="35.2812" y1="26.6406" x2="37.1465" y2="27.0696" gradientUnits="userSpaceOnUse">
<stop stop-color="#BE00FE"/>
<stop offset="1" stop-color="#5200FF"/>
</linearGradient>
<linearGradient id="paint3_linear_119_5761" x1="35.2812" y1="44.3203" x2="37.1465" y2="44.7493" gradientUnits="userSpaceOnUse">
<stop stop-color="#BE00FE"/>
<stop offset="1" stop-color="#5200FF"/>
</linearGradient>
<linearGradient id="paint4_linear_119_5761" x1="13" y1="15.4336" x2="58.3683" y2="59.1638" gradientUnits="userSpaceOnUse">
<stop stop-color="#BE00FE"/>
<stop offset="1" stop-color="#5200FF"/>
</linearGradient>
<linearGradient id="paint5_linear_119_5761" x1="29.1816" y1="10" x2="29.3542" y2="12.0227" gradientUnits="userSpaceOnUse">
<stop stop-color="#BE00FE"/>
<stop offset="1" stop-color="#5200FF"/>
</linearGradient>
<linearGradient id="paint6_linear_119_5761" x1="51.5469" y1="15.6406" x2="57.2056" y2="21.0543" gradientUnits="userSpaceOnUse">
<stop stop-color="#BE00FE"/>
<stop offset="1" stop-color="#5200FF"/>
</linearGradient>
<linearGradient id="paint7_linear_119_5761" x1="13.498" y1="15.6406" x2="19.1568" y2="21.0544" gradientUnits="userSpaceOnUse">
<stop stop-color="#BE00FE"/>
<stop offset="1" stop-color="#5200FF"/>
</linearGradient>
</defs>
</svg>
