<svg width="70" height="70" viewBox="0 0 70 70" fill="none" xmlns="http://www.w3.org/2000/svg">
<g id="Frame 2072751590">
<g id="Group">
<g id="Group_2">
<path id="Vector" d="M34.8458 10C28.677 14.2208 22.0617 16.4529 15 16.5747V47.6218L34.8458 60L54.6916 47.6218V16.5747C47.6299 16.4529 41.0146 14.2208 34.8458 10Z" stroke="url(#paint0_linear_119_5797)" stroke-width="2" stroke-miterlimit="10"/>
<path id="Vector_2" d="M22.3867 22.2188V43.5256L34.8461 51.2366L47.2649 43.5256" stroke="url(#paint1_linear_119_5797)" stroke-width="2" stroke-miterlimit="10"/>
</g>
<g id="Group_3">
<path id="Vector_3" d="M30.747 36.8713C31.3558 38.2106 32.9386 39.1846 34.8055 39.1846C36.6723 39.1846 39.1074 37.6424 39.1074 35.7349C39.1074 31.3518 30.4629 33.868 30.4629 29.5255C30.4629 25.183 32.411 26.0758 34.7649 26.0758C37.1188 26.0758 37.971 26.8875 38.661 28.0644" stroke="url(#paint2_linear_119_5797)" stroke-width="2" stroke-miterlimit="10"/>
<path id="Vector_4" d="M34.8457 26.0337V22.2188" stroke="url(#paint3_linear_119_5797)" stroke-width="2" stroke-miterlimit="10"/>
<path id="Vector_5" d="M34.8457 42.9571V39.1016" stroke="url(#paint4_linear_119_5797)" stroke-width="2" stroke-miterlimit="10"/>
</g>
</g>
</g>
<defs>
<linearGradient id="paint0_linear_119_5797" x1="15" y1="10" x2="64.1648" y2="47.6194" gradientUnits="userSpaceOnUse">
<stop stop-color="#BE00FE"/>
<stop offset="1" stop-color="#5200FF"/>
</linearGradient>
<linearGradient id="paint1_linear_119_5797" x1="22.3867" y1="22.2187" x2="51.4186" y2="46.2103" gradientUnits="userSpaceOnUse">
<stop stop-color="#BE00FE"/>
<stop offset="1" stop-color="#5200FF"/>
</linearGradient>
<linearGradient id="paint2_linear_119_5797" x1="30.4629" y1="26" x2="42.5945" y2="33.6669" gradientUnits="userSpaceOnUse">
<stop stop-color="#BE00FE"/>
<stop offset="1" stop-color="#5200FF"/>
</linearGradient>
<linearGradient id="paint3_linear_119_5797" x1="34.8457" y1="22.2188" x2="36.6917" y2="22.6852" gradientUnits="userSpaceOnUse">
<stop stop-color="#BE00FE"/>
<stop offset="1" stop-color="#5200FF"/>
</linearGradient>
<linearGradient id="paint4_linear_119_5797" x1="34.8457" y1="39.1016" x2="36.6941" y2="39.5637" gradientUnits="userSpaceOnUse">
<stop stop-color="#BE00FE"/>
<stop offset="1" stop-color="#5200FF"/>
</linearGradient>
</defs>
</svg>
