<svg width="100" height="30" viewBox="0 0 100 30" fill="none" xmlns="http://www.w3.org/2000/svg">
<g id="logo">
<path id="Union" fill-rule="evenodd" clip-rule="evenodd" d="M13.9329 9.18567L0.0624939 23.0623L0.0624952 29.9973L7.04896 29.9973L30.5532 6.49302L24.0602 0L24.0567 0.00315531H0V9.18567H13.9329ZM30.5527 24.9038V29.9993H21.3702V15.7453L30.5527 24.9038Z" fill="url(#paint0_linear_23_397)"/>
<g id="RDF">
<path id="Vector" d="M87.2632 22.6309H82.9316V0.00317383H99.6115V4.01151H87.2632V9.18355H97.8336V13.1919H87.2632V22.6309Z" fill="#1C1C1C"/>
<path id="Vector_2" d="M58.8143 22.6309V0.00317383H67.9947C71.3565 0.00317383 74.1581 1.09146 76.3993 3.26803C78.6621 5.4446 79.7934 8.12759 79.7934 11.317C79.7934 14.5064 78.6621 17.1894 76.3993 19.366C74.1581 21.5426 71.3565 22.6309 67.9947 22.6309H58.8143ZM67.9947 4.01151H63.1459V18.6225H67.9947C70.0635 18.6225 71.7983 17.9222 73.1991 16.5214C74.5998 15.0991 75.3002 13.3643 75.3002 11.317C75.3002 9.26975 74.5998 7.54574 73.1991 6.14498C71.7983 4.72266 70.0635 4.01151 67.9947 4.01151Z" fill="#1C1C1C"/>
<path id="Vector_3" d="M37.002 22.6309V0.00317383H47.4753C49.695 0.00317383 51.5483 0.703555 53.0353 2.10432C54.5438 3.50508 55.2981 5.23987 55.2981 7.30869C55.2981 8.7741 54.9102 10.0994 54.1344 11.2847C53.3585 12.4484 52.3134 13.3212 50.9988 13.903L56.1708 22.6309H51.3544L46.6026 14.6465H41.3335V22.6309H37.002ZM47.4753 4.01151H41.3335V10.6382H47.4753C48.4236 10.6382 49.2101 10.3257 49.8351 9.70076C50.46 9.05425 50.7725 8.25689 50.7725 7.30869C50.7725 6.36048 50.46 5.5739 49.8351 4.94894C49.2101 4.32399 48.4236 4.01151 47.4753 4.01151Z" fill="#1C1C1C"/>
</g>
<g id="exchange">
<path id="Vector_4" d="M97.1387 26.4446H99.5781V26.7298H97.4493V27.9979H99.3388V28.2831H97.4493V29.597H99.6036V29.8822H97.1387V26.4446Z" fill="#1C1C1C"/>
<path id="Vector_5" d="M88.4229 29.4217C88.0902 29.0821 87.9238 28.6611 87.9238 28.1586C87.9238 27.6561 88.0936 27.2385 88.4331 26.9058C88.7726 26.5697 89.1987 26.4016 89.7114 26.4016C90.0441 26.4016 90.3463 26.478 90.6179 26.6308C90.8895 26.7802 91.1 26.9856 91.2494 27.247L90.9591 27.3642C90.8335 27.157 90.6604 26.9941 90.4397 26.8752C90.2224 26.7564 89.9796 26.697 89.7114 26.697C89.2904 26.697 88.939 26.8362 88.6572 27.1146C88.3754 27.393 88.2345 27.741 88.2345 28.1586C88.2345 28.5762 88.372 28.926 88.647 29.2078C88.922 29.4862 89.2598 29.6254 89.6605 29.6254C90.0272 29.6254 90.3446 29.5099 90.6128 29.2791C90.8811 29.0448 91.0355 28.7477 91.0763 28.3878H89.523V28.0975H91.4175V28.2248C91.4039 28.707 91.2308 29.111 90.898 29.4369C90.5653 29.7629 90.1545 29.9258 89.6656 29.9258C89.1699 29.9258 88.7557 29.7578 88.4229 29.4217Z" fill="#1C1C1C"/>
<path id="Vector_6" d="M79.3105 26.4446H79.5754L81.9028 29.3475V26.4446H82.1982V29.8822H81.9333L79.611 26.9793V29.8822H79.3105V26.4446Z" fill="#1C1C1C"/>
<path id="Vector_7" d="M70.4629 29.8822L71.9958 26.4446H72.2301L73.763 29.8822H73.4422L73.0653 29.0317H71.1606L70.7837 29.8822H70.4629ZM72.113 26.8927L71.2879 28.7465H72.938L72.113 26.8927Z" fill="#1C1C1C"/>
<path id="Vector_8" d="M62.0352 29.8822V26.4446H62.3458V27.9979H64.607V26.4446H64.9126V29.8822H64.607V28.2831H62.3458V29.8822H62.0352Z" fill="#1C1C1C"/>
<path id="Vector_9" d="M53.0488 28.1586C53.0488 27.6561 53.2152 27.2385 53.5479 26.9058C53.884 26.5697 54.3034 26.4016 54.8058 26.4016C55.1352 26.4016 55.4323 26.478 55.6971 26.6308C55.9653 26.7802 56.1758 26.9856 56.3286 27.247L56.0332 27.3642C55.9076 27.157 55.7361 26.9941 55.5188 26.8752C55.3049 26.7564 55.0673 26.697 54.8058 26.697C54.395 26.697 54.0504 26.8362 53.772 27.1146C53.497 27.393 53.3595 27.741 53.3595 28.1586C53.3595 28.5762 53.497 28.926 53.772 29.2078C54.0504 29.4862 54.395 29.6254 54.8058 29.6254C55.0673 29.6254 55.3049 29.5659 55.5188 29.4471C55.7361 29.3283 55.9076 29.1653 56.0332 28.9582L56.3286 29.0753C56.1758 29.3368 55.9653 29.5439 55.6971 29.6967C55.4289 29.8494 55.1318 29.9258 54.8058 29.9258C54.3034 29.9258 53.884 29.7578 53.5479 29.4217C53.2152 29.0855 53.0488 28.6645 53.0488 28.1586Z" fill="#1C1C1C"/>
<path id="Vector_10" d="M44.8212 26.4446H45.1879L46.2931 27.8909L47.3982 26.4446H47.7649L46.4764 28.1303L47.8158 29.8822H47.4491L46.2931 28.3697L45.1421 29.8822H44.7754L46.1097 28.1303L44.8212 26.4446Z" fill="#1C1C1C"/>
<path id="Vector_11" d="M37.002 26.4446H39.4414V26.7298H37.3126V27.9979H39.2021V28.2831H37.3126V29.597H39.4669V29.8822H37.002V26.4446Z" fill="#1C1C1C"/>
</g>
</g>
<defs>
<linearGradient id="paint0_linear_23_397" x1="0" y1="0" x2="30.556" y2="29.9965" gradientUnits="userSpaceOnUse">
<stop stop-color="#BE00FE"/>
<stop offset="1" stop-color="#5200FF"/>
</linearGradient>
</defs>
</svg>
