<svg width="52" height="52" viewBox="0 0 52 52" fill="none" xmlns="http://www.w3.org/2000/svg">
<circle cx="26" cy="26" r="26" fill="#1C1C1C"/>
<circle cx="26" cy="26" r="26" fill="url(#paint0_radial_546_3901)"/>
<circle cx="26" cy="26" r="26" fill="url(#paint1_radial_546_3901)"/>
<circle cx="26" cy="26" r="26" fill="url(#paint2_radial_546_3901)"/>
<circle cx="26" cy="26" r="26" fill="url(#paint3_radial_546_3901)"/>
<path d="M25.9964 19.6218C28.4 19.6218 28.6821 19.6325 29.6321 19.6753C30.5107 19.7146 30.9857 19.8611 31.3036 19.9861C31.725 20.1504 32.025 20.3433 32.3393 20.6577C32.6536 20.972 32.85 21.2721 33.0107 21.6936C33.1321 22.0115 33.2821 22.4866 33.3214 23.3654C33.3643 24.3155 33.375 24.5977 33.375 27.0018C33.375 29.4058 33.3643 29.688 33.3214 30.6382C33.2821 31.517 33.1357 31.9921 33.0107 32.31C32.8464 32.7315 32.6536 33.0316 32.3393 33.3459C32.025 33.6603 31.725 33.8567 31.3036 34.0175C30.9857 34.1389 30.5107 34.2889 29.6321 34.3282C28.6821 34.3711 28.4 34.3818 25.9964 34.3818C23.5929 34.3818 23.3107 34.3711 22.3607 34.3282C21.4821 34.2889 21.0071 34.1425 20.6893 34.0175C20.2679 33.8531 19.9679 33.6603 19.6536 33.3459C19.3393 33.0316 19.1429 32.7315 18.9821 32.31C18.8607 31.9921 18.7107 31.517 18.6714 30.6382C18.6286 29.688 18.6179 29.4058 18.6179 27.0018C18.6179 24.5977 18.6286 24.3155 18.6714 23.3654C18.7107 22.4866 18.8571 22.0115 18.9821 21.6936C19.1464 21.2721 19.3393 20.972 19.6536 20.6577C19.9679 20.3433 20.2679 20.1469 20.6893 19.9861C21.0071 19.8647 21.4821 19.7146 22.3607 19.6753C23.3107 19.6289 23.5964 19.6218 25.9964 19.6218ZM25.9964 18C23.5536 18 23.2464 18.0107 22.2857 18.0536C21.3286 18.0964 20.675 18.25 20.1036 18.4715C19.5107 18.7001 19.0107 19.0109 18.5107 19.511C18.0107 20.0111 17.7036 20.5148 17.4714 21.1042C17.25 21.6757 17.0964 22.3294 17.0536 23.2903C17.0107 24.2477 17 24.5549 17 26.9982C17 29.4416 17.0107 29.7488 17.0536 30.7097C17.0964 31.667 17.25 32.3207 17.4714 32.8958C17.7 33.4888 18.0107 33.9889 18.5107 34.489C19.0107 34.9891 19.5143 35.2963 20.1036 35.5285C20.675 35.75 21.3286 35.9036 22.2893 35.9464C23.25 35.9893 23.5536 36 26 36C28.4464 36 28.75 35.9893 29.7107 35.9464C30.6679 35.9036 31.3214 35.75 31.8964 35.5285C32.4893 35.2999 32.9893 34.9891 33.4893 34.489C33.9893 33.9889 34.2964 33.4852 34.5286 32.8958C34.75 32.3243 34.9036 31.6706 34.9464 30.7097C34.9893 29.7488 35 29.4451 35 26.9982C35 24.5513 34.9893 24.2477 34.9464 23.2868C34.9036 22.3294 34.75 21.6757 34.5286 21.1006C34.3 20.5076 33.9893 20.0075 33.4893 19.5074C32.9893 19.0073 32.4857 18.7001 31.8964 18.468C31.325 18.2465 30.6714 18.0929 29.7107 18.05C28.7464 18.0107 28.4393 18 25.9964 18Z" fill="white"/>
<path d="M25.9964 19.6218C28.4 19.6218 28.6821 19.6325 29.6321 19.6753C30.5107 19.7146 30.9857 19.8611 31.3036 19.9861C31.725 20.1504 32.025 20.3433 32.3393 20.6577C32.6536 20.972 32.85 21.2721 33.0107 21.6936C33.1321 22.0115 33.2821 22.4866 33.3214 23.3654C33.3643 24.3155 33.375 24.5977 33.375 27.0018C33.375 29.4058 33.3643 29.688 33.3214 30.6382C33.2821 31.517 33.1357 31.9921 33.0107 32.31C32.8464 32.7315 32.6536 33.0316 32.3393 33.3459C32.025 33.6603 31.725 33.8567 31.3036 34.0175C30.9857 34.1389 30.5107 34.2889 29.6321 34.3282C28.6821 34.3711 28.4 34.3818 25.9964 34.3818C23.5929 34.3818 23.3107 34.3711 22.3607 34.3282C21.4821 34.2889 21.0071 34.1425 20.6893 34.0175C20.2679 33.8531 19.9679 33.6603 19.6536 33.3459C19.3393 33.0316 19.1429 32.7315 18.9821 32.31C18.8607 31.9921 18.7107 31.517 18.6714 30.6382C18.6286 29.688 18.6179 29.4058 18.6179 27.0018C18.6179 24.5977 18.6286 24.3155 18.6714 23.3654C18.7107 22.4866 18.8571 22.0115 18.9821 21.6936C19.1464 21.2721 19.3393 20.972 19.6536 20.6577C19.9679 20.3433 20.2679 20.1469 20.6893 19.9861C21.0071 19.8647 21.4821 19.7146 22.3607 19.6753C23.3107 19.6289 23.5964 19.6218 25.9964 19.6218ZM25.9964 18C23.5536 18 23.2464 18.0107 22.2857 18.0536C21.3286 18.0964 20.675 18.25 20.1036 18.4715C19.5107 18.7001 19.0107 19.0109 18.5107 19.511C18.0107 20.0111 17.7036 20.5148 17.4714 21.1042C17.25 21.6757 17.0964 22.3294 17.0536 23.2903C17.0107 24.2477 17 24.5549 17 26.9982C17 29.4416 17.0107 29.7488 17.0536 30.7097C17.0964 31.667 17.25 32.3207 17.4714 32.8958C17.7 33.4888 18.0107 33.9889 18.5107 34.489C19.0107 34.9891 19.5143 35.2963 20.1036 35.5285C20.675 35.75 21.3286 35.9036 22.2893 35.9464C23.25 35.9893 23.5536 36 26 36C28.4464 36 28.75 35.9893 29.7107 35.9464C30.6679 35.9036 31.3214 35.75 31.8964 35.5285C32.4893 35.2999 32.9893 34.9891 33.4893 34.489C33.9893 33.9889 34.2964 33.4852 34.5286 32.8958C34.75 32.3243 34.9036 31.6706 34.9464 30.7097C34.9893 29.7488 35 29.4451 35 26.9982C35 24.5513 34.9893 24.2477 34.9464 23.2868C34.9036 22.3294 34.75 21.6757 34.5286 21.1006C34.3 20.5076 33.9893 20.0075 33.4893 19.5074C32.9893 19.0073 32.4857 18.7001 31.8964 18.468C31.325 18.2465 30.6714 18.0929 29.7107 18.05C28.7464 18.0107 28.4393 18 25.9964 18Z" fill="white"/>
<path d="M25.9964 22.3794C23.4464 22.3794 21.375 24.4477 21.375 27.0018C21.375 29.5559 23.4429 31.6241 25.9964 31.6241C28.55 31.6241 30.6179 29.5559 30.6179 27.0018C30.6179 24.4477 28.55 22.3794 25.9964 22.3794ZM25.9964 29.9988C24.3393 29.9988 22.9964 28.6557 22.9964 26.9982C22.9964 25.3407 24.3393 23.9976 25.9964 23.9976C27.6536 23.9976 28.9964 25.3407 28.9964 26.9982C28.9964 28.6557 27.6536 29.9988 25.9964 29.9988Z" fill="white"/>
<path d="M25.9964 22.3794C23.4464 22.3794 21.375 24.4477 21.375 27.0018C21.375 29.5559 23.4429 31.6241 25.9964 31.6241C28.55 31.6241 30.6179 29.5559 30.6179 27.0018C30.6179 24.4477 28.55 22.3794 25.9964 22.3794ZM25.9964 29.9988C24.3393 29.9988 22.9964 28.6557 22.9964 26.9982C22.9964 25.3407 24.3393 23.9976 25.9964 23.9976C27.6536 23.9976 28.9964 25.3407 28.9964 26.9982C28.9964 28.6557 27.6536 29.9988 25.9964 29.9988Z" fill="white"/>
<path d="M30.8 23.2725C31.3957 23.2725 31.8786 22.7895 31.8786 22.1937C31.8786 21.5979 31.3957 21.1149 30.8 21.1149C30.2043 21.1149 29.7214 21.5979 29.7214 22.1937C29.7214 22.7895 30.2043 23.2725 30.8 23.2725Z" fill="white"/>
<path d="M30.8 23.2725C31.3957 23.2725 31.8786 22.7895 31.8786 22.1937C31.8786 21.5979 31.3957 21.1149 30.8 21.1149C30.2043 21.1149 29.7214 21.5979 29.7214 22.1937C29.7214 22.7895 30.2043 23.2725 30.8 23.2725Z" fill="white"/>
<defs>
<radialGradient id="paint0_radial_546_3901" cx="0" cy="0" r="1" gradientUnits="userSpaceOnUse" gradientTransform="translate(50.3209 24.373) rotate(164.25) scale(33.225 23.937)">
<stop stop-color="#FF005F"/>
<stop offset="1" stop-color="#FC01D8"/>
</radialGradient>
<radialGradient id="paint1_radial_546_3901" cx="0" cy="0" r="1" gradientUnits="userSpaceOnUse" gradientTransform="translate(13.8121 56.0051) rotate(-90) scale(41.5074 44.0385)">
<stop stop-color="#FFCC00"/>
<stop offset="0.1242" stop-color="#FFCC00"/>
<stop offset="0.5672" stop-color="#FE4A05"/>
<stop offset="0.6942" stop-color="#FF0F3F"/>
<stop offset="1" stop-color="#FE0657" stop-opacity="0"/>
</radialGradient>
<radialGradient id="paint2_radial_546_3901" cx="0" cy="0" r="1" gradientUnits="userSpaceOnUse" gradientTransform="translate(27.314 51.2667) rotate(-59.8703) scale(17.1637 22.3452)">
<stop stop-color="#FFCC00"/>
<stop offset="1" stop-color="#FFCC00" stop-opacity="0"/>
</radialGradient>
<radialGradient id="paint3_radial_546_3901" cx="0" cy="0" r="1" gradientUnits="userSpaceOnUse" gradientTransform="translate(7.05528 2.11743) rotate(164.274) scale(32.8565 11.1942)">
<stop stop-color="#780CFF"/>
<stop offset="1" stop-color="#820BFF" stop-opacity="0"/>
</radialGradient>
</defs>
</svg>
