<svg width="28" height="28" viewBox="0 0 28 28" fill="none" xmlns="http://www.w3.org/2000/svg">
<circle cx="14" cy="14" r="14" fill="#319FDA"/>
<circle cx="14" cy="14" r="14" fill="url(#paint0_linear_542_5976)"/>
<path d="M8 11.997C7.99974 11.6031 8.07718 11.213 8.22788 10.8491C8.37859 10.4852 8.59961 10.1545 8.87827 9.87616C9.15694 9.59777 9.48779 9.37708 9.85187 9.22674C10.2159 9.0764 10.6061 8.99935 11 9H17C18.6565 9 20 10.3475 20 11.997V19H11C9.3435 19 8 17.6525 8 16.003V11.997ZM19 18V11.997C18.9987 11.4673 18.7874 10.9596 18.4126 10.5853C18.0377 10.211 17.5298 10.0005 17 10H11C10.7374 9.99935 10.4773 10.0505 10.2345 10.1506C9.9918 10.2507 9.77119 10.3977 9.58538 10.5833C9.39957 10.7688 9.25222 10.9892 9.15176 11.2318C9.05131 11.4744 8.99974 11.7344 9 11.997V16.003C9.00132 16.5328 9.21256 17.0404 9.58743 17.4147C9.9623 17.789 10.4702 17.9995 11 18H19Z" fill="white"/>
<rect x="12" y="13" width="1" height="2" fill="white"/>
<rect x="15" y="13" width="1" height="2" fill="white"/>
<defs>
<linearGradient id="paint0_linear_542_5976" x1="0" y1="0" x2="28.5051" y2="27.4759" gradientUnits="userSpaceOnUse">
<stop stop-color="#BE00FE"/>
<stop offset="1" stop-color="#5200FF"/>
</linearGradient>
</defs>
</svg>
