<svg width="31" height="31" viewBox="0 0 31 31" fill="none" xmlns="http://www.w3.org/2000/svg">
<g clip-path="url(#clip0_2101_5599)">
<circle cx="15.5618" cy="15.5" r="12" fill="white"/>
<circle cx="15.5618" cy="15.5" r="12" stroke="#1F1F1F"/>
<circle cx="15.5618" cy="15.5" r="12" stroke="url(#paint0_linear_2101_5599)"/>
<rect x="0.0617676" y="9.73389" width="8.43798" height="11.5385" fill="white"/>
<rect x="31.0618" y="21" width="8" height="12" transform="rotate(-180 31.0618 21)" fill="white"/>
<path d="M7.56299 16.2504L7.56299 18.1911C7.56299 18.3016 7.47345 18.3911 7.36299 18.3911L1.20011 18.3911C1.08966 18.3911 1.00011 18.3016 1.00011 18.1911L1.00011 16.2504C1.00011 16.2001 1.01908 16.1517 1.05324 16.1147L4.13468 12.7808C4.21386 12.6951 4.34925 12.6951 4.42842 12.7808L7.50986 16.1147C7.54402 16.1517 7.56299 16.2001 7.56299 16.2504Z" stroke="url(#paint1_linear_2101_5599)"/>
<path d="M7.56299 16.2504L7.56299 18.1911C7.56299 18.3016 7.47345 18.3911 7.36299 18.3911L1.20011 18.3911C1.08966 18.3911 1.00011 18.3016 1.00011 18.1911L1.00011 16.2504C1.00011 16.2001 1.01908 16.1517 1.05324 16.1147L4.13468 12.7808C4.21386 12.6951 4.34925 12.6951 4.42842 12.7808L7.50986 16.1147C7.54402 16.1517 7.56299 16.2001 7.56299 16.2504Z" stroke="#AC00FF"/>
<path d="M23.5642 14.7613L23.5642 12.8206C23.5642 12.7101 23.6538 12.6206 23.7642 12.6206L26.8456 12.6206L29.9271 12.6206C30.0375 12.6206 30.1271 12.7101 30.1271 12.8206L30.1271 14.7613C30.1271 14.8116 30.1081 14.8601 30.074 14.897L26.9925 18.2309C26.9133 18.3166 26.778 18.3166 26.6988 18.2309L23.6173 14.897C23.5832 14.8601 23.5642 14.8116 23.5642 14.7613Z" stroke="url(#paint2_linear_2101_5599)"/>
<path d="M23.5642 14.7613L23.5642 12.8206C23.5642 12.7101 23.6538 12.6206 23.7642 12.6206L26.8456 12.6206L29.9271 12.6206C30.0375 12.6206 30.1271 12.7101 30.1271 12.8206L30.1271 14.7613C30.1271 14.8116 30.1081 14.8601 30.074 14.897L26.9925 18.2309C26.9133 18.3166 26.778 18.3166 26.6988 18.2309L23.6173 14.897C23.5832 14.8601 23.5642 14.8116 23.5642 14.7613Z" stroke="#5200FF"/>
</g>
<defs>
<linearGradient id="paint0_linear_2101_5599" x1="3.06177" y1="3" x2="28.5128" y2="27.5321" gradientUnits="userSpaceOnUse">
<stop stop-color="#BE00FE"/>
<stop offset="1" stop-color="#5200FF"/>
</linearGradient>
<linearGradient id="paint1_linear_2101_5599" x1="7.56299" y1="18.3911" x2="1.71055" y2="11.974" gradientUnits="userSpaceOnUse">
<stop stop-color="#BE00FE"/>
<stop offset="1" stop-color="#5200FF"/>
</linearGradient>
<linearGradient id="paint2_linear_2101_5599" x1="23.5642" y1="12.6206" x2="29.4166" y2="19.0378" gradientUnits="userSpaceOnUse">
<stop stop-color="#BE00FE"/>
<stop offset="1" stop-color="#5200FF"/>
</linearGradient>
<clipPath id="clip0_2101_5599">
<rect width="31" height="31" fill="white"/>
</clipPath>
</defs>
</svg>
