{"scene":0,"asset":{"generator":"ImageToStl.com","version":"2.0"},"scenes":[{"name":"Scene","nodes":[0]}],"nodes":[{"name":"Node0","children":[1]},{"name":"Node1","mesh":0}],"materials":[{"name":"Матеріал.001","pbrMetallicRoughness":{"baseColorFactor":[0.013696,0.011069,0.799999,1.0],"metallicFactor":0.383717,"roughnessFactor":0.23039256},"emissiveFactor":[0.0,0.0,0.0],"doubleSided":true}],"meshes":[{"name":"Mesh0","primitives":[{"indices":2,"material":0,"attributes":{"POSITION":0,"NORMAL":1}}]}],"accessors":[{"bufferView":0,"componentType":5126,"count":1744,"type":"VEC3","min":[-0.0730024,-0.10416515,-0.1004409],"max":[0.1007641,0.06137615,0.10399468]},{"bufferView":1,"componentType":5126,"count":1744,"type":"VEC3"},{"bufferView":2,"componentType":5123,"count":10440,"type":"SCALAR"}],"bufferViews":[{"target":34962,"buffer":0,"byteLength":20928,"byteOffset":0},{"target":34962,"buffer":0,"byteLength":20928,"byteOffset":20928},{"target":34963,"buffer":0,"byteLength":20880,"byteOffset":41856}],"buffers":[{"byteLength":62736,"uri":"data:application/octet-stream;base64,"}]}