<svg width="1670" height="820" viewBox="0 0 1670 820" fill="none" xmlns="http://www.w3.org/2000/svg">
<g opacity="0.1">
<mask id="path-1-inside-1_73_6187" fill="white">
<path fill-rule="evenodd" clip-rule="evenodd" d="M1213.68 251.047L834.547 630.35L834.547 819.9L1025.5 819.9L1418.76 426.644V819.979H1669.74V680.708L1419.42 425.984L1667.93 177.472L1492.3 1.84243L1492.3 0.0664195H1490.53L1490.46 0.00195312L1490.39 0.0664195H834.664V251.047H1213.68Z"/>
</mask>
<path d="M834.547 630.35L833.84 629.643L833.547 629.936L833.547 630.35H834.547ZM1213.68 251.047L1214.39 251.753L1216.09 250.047H1213.68V251.047ZM834.547 819.9H833.547L833.547 820.9H834.547L834.547 819.9ZM1025.5 819.9V820.9H1025.92L1026.21 820.607L1025.5 819.9ZM1418.76 426.644H1419.76V424.23L1418.05 425.937L1418.76 426.644ZM1418.76 819.979H1417.76V820.979H1418.76V819.979ZM1669.74 819.979V820.979H1670.74V819.979H1669.74ZM1669.74 680.708H1670.74V680.299L1670.45 680.007L1669.74 680.708ZM1419.42 425.984L1418.71 425.277L1418.01 425.978L1418.71 426.685L1419.42 425.984ZM1667.93 177.472L1668.64 178.179L1669.35 177.472L1668.64 176.765L1667.93 177.472ZM1492.3 1.84243L1491.3 1.84287L1491.3 2.25683L1491.6 2.54953L1492.3 1.84243ZM1492.3 0.0664195L1493.3 0.0659728L1493.3 -0.93358H1492.3V0.0664195ZM1490.53 0.0664195L1489.82 0.773453L1490.11 1.06642H1490.53V0.0664195ZM1490.46 0.00195312L1491.17 -0.705081L1490.5 -1.37682L1489.79 -0.74061L1490.46 0.00195312ZM1490.39 0.0664195V1.06642H1490.78L1491.06 0.808982L1490.39 0.0664195ZM834.664 0.0664195V-0.93358H833.664V0.0664195H834.664ZM834.664 251.047H833.664V252.047H834.664V251.047ZM835.254 631.057L1214.39 251.753L1212.97 250.34L833.84 629.643L835.254 631.057ZM835.547 819.9L835.547 630.35H833.547L833.547 819.9H835.547ZM1025.5 818.9L834.547 818.9L834.547 820.9L1025.5 820.9V818.9ZM1418.05 425.937L1024.8 819.193L1026.21 820.607L1419.47 427.351L1418.05 425.937ZM1417.76 426.644V819.979H1419.76V426.644H1417.76ZM1418.76 820.979H1669.74V818.979H1418.76V820.979ZM1670.74 819.979V680.708H1668.74V819.979H1670.74ZM1670.45 680.007L1420.13 425.283L1418.71 426.685L1669.03 681.409L1670.45 680.007ZM1667.22 176.765L1418.71 425.277L1420.13 426.691L1668.64 178.179L1667.22 176.765ZM1491.6 2.54953L1667.22 178.179L1668.64 176.765L1493.01 1.13532L1491.6 2.54953ZM1493.3 1.84198L1493.3 0.0659728L1491.3 0.0668663L1491.3 1.84287L1493.3 1.84198ZM1492.3 -0.93358H1490.53V1.06642H1492.3V-0.93358ZM1489.76 0.708987L1489.82 0.773453L1491.23 -0.640614L1491.17 -0.705081L1489.76 0.708987ZM1491.06 0.808982L1491.13 0.744516L1489.79 -0.74061L1489.72 -0.676143L1491.06 0.808982ZM1490.39 -0.93358H834.664V1.06642H1490.39V-0.93358ZM833.664 0.0664195V251.047H835.664V0.0664195H833.664ZM834.664 252.047H1213.68V250.047H834.664V252.047Z" fill="#1C1C1C" mask="url(#path-1-inside-1_73_6187)"/>
<mask id="path-3-inside-2_73_6187" fill="white">
<path fill-rule="evenodd" clip-rule="evenodd" d="M454.321 251.08L835.197 630.38L835.197 725.154L835.197 819.929L642.427 819.929L250.989 428.491V820.003H0.0088501V680.731L249.425 426.927L-0.000915527 177.501L177.469 0.03125L177.545 0.0996066H835.084V251.08H454.321Z"/>
</mask>
<path d="M835.197 630.38L835.903 629.671L836.197 629.964L836.197 630.38H835.197ZM454.321 251.08L453.616 251.788L451.9 250.08H454.321V251.08ZM835.197 725.154H834.197H835.197ZM835.197 819.929H836.197L836.197 820.929H835.197L835.197 819.929ZM642.427 819.929V820.929H642.013L641.72 820.636L642.427 819.929ZM250.989 428.491H249.989V426.077L251.696 427.784L250.989 428.491ZM250.989 820.003H251.989V821.003H250.989V820.003ZM0.0088501 820.003V821.003H-0.99115V820.003H0.0088501ZM0.0088501 680.731H-0.99115V680.322L-0.704407 680.03L0.0088501 680.731ZM249.425 426.927L250.132 426.22L250.833 426.921L250.139 427.628L249.425 426.927ZM-0.000915527 177.501L-0.708008 178.208L-1.4151 177.501L-0.708008 176.794L-0.000915527 177.501ZM177.469 0.03125L176.762 -0.675857L177.433 -1.34737L178.139 -0.711403L177.469 0.03125ZM177.545 0.0996066V1.09961H177.16L176.875 0.84226L177.545 0.0996066ZM835.084 0.0996066V-0.900393H836.084V0.0996066H835.084ZM835.084 251.08H836.084V252.08H835.084V251.08ZM834.492 631.088L453.616 251.788L455.027 250.371L835.903 629.671L834.492 631.088ZM834.197 725.154L834.197 630.38H836.197L836.197 725.154H834.197ZM834.197 819.929L834.197 725.154H836.197L836.197 819.929H834.197ZM642.427 818.929L835.197 818.929L835.197 820.929L642.427 820.929V818.929ZM251.696 427.784L643.135 819.222L641.72 820.636L250.282 429.198L251.696 427.784ZM251.989 428.491V820.003H249.989V428.491H251.989ZM250.989 821.003H0.0088501V819.003H250.989V821.003ZM-0.99115 820.003V680.731H1.00885V820.003H-0.99115ZM-0.704407 680.03L248.712 426.226L250.139 427.628L0.722107 681.432L-0.704407 680.03ZM0.706177 176.794L250.132 426.22L248.718 427.634L-0.708008 178.208L0.706177 176.794ZM178.176 0.738357L0.706177 178.208L-0.708008 176.794L176.762 -0.675857L178.176 0.738357ZM176.875 0.84226L176.799 0.773903L178.139 -0.711403L178.214 -0.643047L176.875 0.84226ZM177.545 -0.900393H835.084V1.09961H177.545V-0.900393ZM836.084 0.0996066V251.08H834.084V0.0996066H836.084ZM835.084 252.08H454.321V250.08H835.084V252.08Z" fill="#1C1C1C" mask="url(#path-3-inside-2_73_6187)"/>
</g>
</svg>
