<svg width="245" height="240" viewBox="0 0 245 240" fill="none" xmlns="http://www.w3.org/2000/svg">
<g id="Union" opacity="0.4">
<mask id="path-1-inside-1_73_3638" fill="white">
<path fill-rule="evenodd" clip-rule="evenodd" d="M111.468 73.4754L0.496027 184.496L0.496037 239.976L56.3878 239.976L170.96 125.404L170.96 239.998L244.42 239.998L244.42 199.234L172.597 123.767L244.422 51.9422L192.478 -0.00195312L192.459 0.015333H0V73.4754H111.468Z"/>
</mask>
<path d="M0.496027 184.496L-0.211238 183.79L-0.503973 184.082L-0.503973 184.496H0.496027ZM111.468 73.4754L112.175 74.1824L113.881 72.4754H111.468V73.4754ZM0.496037 239.976H-0.503963L-0.503963 240.976H0.496035L0.496037 239.976ZM56.3878 239.976V240.976H56.802L57.0949 240.683L56.3878 239.976ZM170.96 125.404H171.96V122.99L170.253 124.697L170.96 125.404ZM170.96 239.998H169.96V240.998H170.96V239.998ZM244.42 239.998V240.998H245.42V239.998H244.42ZM244.42 199.234H245.42V198.834L245.144 198.545L244.42 199.234ZM172.597 123.767L171.89 123.06L171.2 123.75L171.873 124.456L172.597 123.767ZM244.422 51.9422L245.129 52.6493L245.836 51.9422L245.129 51.2351L244.422 51.9422ZM192.478 -0.00195312L193.185 -0.70906L192.513 -1.38066L191.808 -0.744522L192.478 -0.00195312ZM192.459 0.015333V1.01533H192.843L193.128 0.757902L192.459 0.015333ZM0 0.015333V-0.984667H-1V0.015333H0ZM0 73.4754H-1V74.4754H0V73.4754ZM1.20329 185.203L112.175 74.1824L110.76 72.7685L-0.211238 183.79L1.20329 185.203ZM1.49604 239.976L1.49603 184.496H-0.503973L-0.503963 239.976H1.49604ZM56.3878 238.976L0.496039 238.976L0.496035 240.976L56.3878 240.976V238.976ZM170.253 124.697L55.6806 239.269L57.0949 240.683L171.667 126.111L170.253 124.697ZM169.96 125.404L169.96 239.998H171.96L171.96 125.404H169.96ZM170.96 240.998L244.42 240.998V238.998L170.96 238.998V240.998ZM245.42 239.998L245.42 199.234H243.42L243.42 239.998H245.42ZM245.144 198.545L173.322 123.078L171.873 124.456L243.696 199.924L245.144 198.545ZM243.715 51.2351L171.89 123.06L173.304 124.474L245.129 52.6493L243.715 51.2351ZM191.771 0.705154L243.715 52.6493L245.129 51.2351L193.185 -0.70906L191.771 0.705154ZM193.128 0.757902L193.148 0.740616L191.808 -0.744522L191.789 -0.727236L193.128 0.757902ZM192.459 -0.984667H0V1.01533H192.459V-0.984667ZM-1 0.015333V73.4754H1V0.015333H-1ZM0 74.4754H111.468V72.4754H0V74.4754Z" fill="white" mask="url(#path-1-inside-1_73_3638)"/>
</g>
</svg>
